<svg width="125" height="93" viewBox="0 0 125 93" fill="none" xmlns="http://www.w3.org/2000/svg">
<path d="M81.4956 51.2201L81.8722 51.3412C81.8804 51.3439 81.8885 51.3428 81.8967 51.345C82.0588 51.4023 82.2285 51.4362 82.4026 51.4362C82.8495 51.4362 83.3112 51.2534 83.6648 50.9145C84.1085 50.4894 84.3082 49.9257 84.4195 49.5377C85.0891 47.2135 84.4414 44.7638 83.7816 42.6509C83.3991 41.4241 82.9854 40.2449 82.1363 39.2997C79.9688 36.8871 76.7453 37.017 73.9016 37.1354C72.7911 37.1796 71.7417 37.2228 70.7856 37.1289L70.2028 37.065C69.1398 36.9439 68.0408 36.8178 66.9439 37.1322C66.4222 37.2822 66.0489 37.5142 65.8017 37.8421C65.4274 38.3382 65.3646 39.0481 65.6293 39.7887C65.8323 40.3573 66.1788 40.8937 66.6629 41.393C66.6749 41.4209 66.677 41.4503 66.6934 41.4771C67.6277 43.0034 69.0967 44.6984 70.497 45.8869C70.4473 45.9567 70.3982 46.0271 70.3431 46.0915C70.0659 46.4151 69.775 46.7355 69.4836 47.0569C68.8833 47.7177 68.2634 48.4015 67.7668 49.094C67.5878 49.303 67.3843 49.5398 67.2446 49.8493C66.8757 50.6624 67.0989 51.7036 67.8127 52.5025C68.2056 52.9418 68.6694 53.2561 69.1185 53.56C69.2746 53.6665 69.4307 53.7712 69.5824 53.8831C69.7335 53.9933 69.8809 54.1101 70.0277 54.2258C70.3715 54.497 70.7267 54.7764 71.1409 55.004C71.6511 55.2834 72.1717 55.4258 72.6629 55.4258C72.9346 55.4258 73.1977 55.3822 73.4443 55.2937C74.2001 55.0242 74.7933 54.3431 75.0711 53.4258C75.255 52.8201 75.2833 52.2149 75.3106 51.631L75.3254 51.3347C75.3685 50.5521 75.4503 49.8563 75.5627 49.2184C75.8585 49.3576 76.1532 49.5076 76.4588 49.6692C77.1949 50.0583 77.9557 50.461 78.8195 50.6613C79.1546 50.7388 79.4956 50.7824 79.8372 50.825L80.2514 50.879C80.6045 50.9297 81.0782 51.0842 81.4956 51.2201ZM70.6416 43.709C70.8342 44.0675 71.0716 44.4015 71.3543 44.694C71.321 44.7289 71.2872 44.7638 71.2555 44.7999C71.2129 44.7627 71.1709 44.7289 71.1284 44.6913C70.8157 44.3507 70.5401 43.9786 70.3 43.5835C70.4135 43.626 70.5275 43.6686 70.6416 43.709ZM71.5998 44.4724C71.4208 44.2885 71.2637 44.085 71.1229 43.8711C71.4563 43.9791 71.7919 44.0801 72.1286 44.175C71.9284 44.2465 71.7554 44.3513 71.5998 44.4724ZM76.0462 46.8271C76.2209 46.8326 76.3949 46.8413 76.5696 46.8413C77.3199 46.8413 78.0713 46.7917 78.8135 46.6924C78.8473 46.688 78.8817 46.682 78.9161 46.6771C79.2975 46.945 79.6555 47.2392 79.9731 47.5775C79.9775 47.5819 79.9802 47.5862 79.9846 47.5906C78.6531 47.5584 77.3314 47.3663 76.0424 47.0187C76.0473 46.9543 76.0468 46.8905 76.0462 46.8271ZM76.0173 46.4975C76.0015 46.4048 75.9802 46.312 75.9496 46.2187C76.4157 46.115 76.8686 45.9666 77.3046 45.7734C77.7166 45.9573 78.1095 46.1663 78.4855 46.396C77.6675 46.491 76.8408 46.5254 76.0173 46.4975ZM75.8187 45.9082C75.7581 45.7925 75.6828 45.6752 75.5922 45.5562L75.9486 45.2512C76.2612 45.3565 76.5674 45.4711 76.8697 45.5933C76.5286 45.7254 76.1778 45.8312 75.8187 45.9082ZM75.3794 45.3041C75.3679 45.2915 75.3597 45.2795 75.3477 45.2664C75.3919 45.2113 75.4318 45.1524 75.4792 45.1C75.5131 45.1104 75.5469 45.1207 75.5808 45.1316L75.3794 45.3041ZM75.1027 45.046C75.0667 45.0154 75.0312 44.9788 74.9947 44.951C75.0438 44.9652 75.0929 44.981 75.142 44.9958C75.1289 45.0121 75.1164 45.0296 75.1027 45.046ZM75.9993 47.3483C77.3941 47.7199 78.8244 47.9207 80.2683 47.9311C80.419 48.1341 80.5221 48.324 80.5799 48.509C79.7101 48.461 78.8271 48.3879 77.9873 48.1554C77.6452 48.0615 77.3008 47.9376 76.9685 47.8176C76.6432 47.7008 76.3104 47.584 75.9698 47.488C75.9797 47.4416 75.9906 47.3947 75.9993 47.3483ZM66.8555 38.6356C66.9232 38.5461 67.0754 38.467 67.3079 38.3998C67.6833 38.2929 68.0751 38.2541 68.4806 38.2541C68.9848 38.2541 69.5109 38.3142 70.0533 38.3758L70.6558 38.4413C71.7041 38.5444 72.8495 38.4981 73.9562 38.4528C76.634 38.3398 79.4029 38.2296 81.1551 40.1799C81.8263 40.9275 82.1849 41.9611 82.5227 43.0427C83.1529 45.0618 83.7205 47.1988 83.1518 49.1715C83.0416 49.554 82.9139 49.8056 82.7519 49.9611C82.6231 50.085 82.4326 50.1472 82.3273 50.1036C82.2045 50.0512 82.0915 49.8323 82.0457 49.5584C82.0195 49.404 82.0091 49.2473 81.9977 49.0907C81.9759 48.7928 81.9497 48.4959 81.8711 48.2089C81.7292 47.6894 81.4323 47.2009 80.9368 46.6733C79.2779 44.9041 76.8959 44.0839 74.569 43.4618L73.8754 43.279C71.9584 42.7758 69.9758 42.2558 68.3998 41.1409C67.614 40.5843 67.1 39.9796 66.8724 39.3439C66.7644 39.0432 66.7578 38.7649 66.8555 38.6356ZM74.0086 51.2604L73.9933 51.5677C73.9682 52.0954 73.9447 52.5936 73.8089 53.0427C73.6555 53.548 73.3537 53.9246 73.0012 54.0512C72.6732 54.169 72.2269 54.0937 71.7761 53.846C71.4585 53.6719 71.1606 53.4367 70.8451 53.189C70.6852 53.0629 70.5254 52.9368 70.3616 52.8173C70.1974 52.6967 70.0288 52.5821 69.8596 52.4675C69.4596 52.1963 69.082 51.9404 68.7976 51.6222C68.5079 51.2981 68.2749 50.7759 68.4473 50.3933C68.5101 50.2553 68.6361 50.1079 68.8042 49.9087C69.2915 49.2326 69.8863 48.5767 70.462 47.9431C70.7616 47.6124 71.0601 47.2834 71.3455 46.951C71.5376 46.7273 71.7013 46.473 71.8612 46.2203C72.2405 45.6211 72.4217 45.3892 72.8009 45.3892C72.826 45.3892 72.8522 45.3903 72.879 45.3925C72.8806 45.3925 72.8817 45.3925 72.8833 45.393C73.1824 45.4209 73.5131 45.5535 73.9229 45.811C74.0741 45.906 74.2465 46.0217 74.3791 46.1597C74.8397 46.6389 74.8031 46.8408 74.5756 47.6173C74.2722 48.6482 74.0872 49.84 74.0086 51.2604ZM79.118 49.3745C78.4217 49.2135 77.7685 48.8681 77.0765 48.5019C76.6869 48.2956 76.282 48.0915 75.8629 47.9082C75.8727 47.8749 75.8814 47.8416 75.8902 47.8083C76.217 47.9011 76.5401 48.0141 76.8561 48.1276C77.1944 48.2493 77.5442 48.3748 77.8989 48.473C78.7993 48.7224 79.733 48.7939 80.6492 48.843C80.6629 48.9576 80.6722 49.0733 80.6809 49.1889C80.6918 49.3352 80.7093 49.4809 80.7278 49.6266C80.6318 49.6059 80.5352 49.5857 80.4435 49.572L80.0015 49.5136C79.7052 49.4776 79.4089 49.4422 79.118 49.3745Z" fill="#C87575"/>
<path d="M46.7687 26.19C46.45 26.4225 46.0134 26.7406 45.8022 27.2667C45.5097 27.993 45.7673 28.8863 46.4729 29.5996C47.7952 30.9344 49.7853 31.2285 51.2385 31.4435L54.8495 31.9766C54.9188 33.3251 54.7862 34.5977 54.4042 36.0487C54.2868 36.4956 54.1744 36.9246 54.1581 37.4119C53.8705 37.5838 53.6418 37.8075 53.4754 37.981C52.8817 38.6004 52.6437 39.8664 52.6716 40.8454C52.6907 41.5117 52.8364 42.4203 53.4197 42.9622C53.9436 43.4495 54.7807 43.6143 55.7613 43.6143C56.6448 43.6143 57.6446 43.4801 58.6367 43.3278C58.8593 43.2935 59.0569 43.2629 59.2189 43.2416C59.2577 43.2367 59.3133 43.2274 59.3755 43.2138C59.4328 43.2302 59.4912 43.2471 59.554 43.2471C59.5807 43.2471 59.6086 43.246 59.6358 43.2416C60.4107 43.1456 61.142 42.6343 61.5922 41.873C61.9153 41.3267 62.1035 40.6719 62.1837 39.813C62.258 39.0206 62.2345 38.219 62.1144 37.4315C62.0893 37.2662 62.0539 37.0724 61.9496 36.8749C61.6959 36.3969 61.1545 36.1333 60.4991 36.1382C60.4113 36.1409 60.3229 36.1611 60.235 36.1731C59.9169 35.0135 59.7051 33.8233 59.6113 32.6249C60.27 32.6872 60.921 32.7281 61.5584 32.7281C63.3494 32.7281 65.0443 32.4285 66.569 31.5232C67.5758 30.9256 68.3174 30.1409 68.7136 29.2541C69.3958 27.7278 69.0967 25.802 67.9333 24.2287C66.9139 22.8508 65.423 21.9281 64.0997 21.2077C62.9821 20.5987 61.8187 20.0394 60.641 19.5455C57.626 18.2806 55.9529 19.4997 53.8345 21.0429L46.7687 26.19ZM57.8459 32.4143C58.0025 33.8271 58.2345 35.2411 58.5455 36.6239C58.5684 36.7243 58.5919 36.8203 58.6181 36.9136C58.5766 36.948 58.5319 36.9748 58.4915 37.0108C58.3633 37.1259 58.2503 37.2389 58.145 37.3529C57.8956 35.7775 57.6642 33.9908 57.6277 32.3837C57.7008 32.3941 57.7734 32.4039 57.8459 32.4143ZM57.297 32.3374C57.3319 34.0722 57.5927 36.0165 57.8629 37.6847C57.7734 37.7988 57.6877 37.9166 57.6025 38.0394C57.5474 38.017 57.4923 37.9936 57.4377 37.9718L56.814 37.7246L56.6061 32.2353L57.2058 32.3237C57.2364 32.3286 57.2669 32.3325 57.297 32.3374ZM55.8519 37.3464C55.7428 37.3049 55.626 37.2662 55.4989 37.2329C55.5311 36.9693 55.5971 36.7019 55.6822 36.3783C55.8126 35.8812 55.9109 35.4053 55.9911 34.9371C55.9703 35.742 55.9201 36.5458 55.8519 37.3464ZM56.3294 33.6487L56.4789 37.5919L56.1728 37.4708C56.2841 36.202 56.3371 34.9245 56.3294 33.6487ZM58.4358 42.0231C57.387 42.1846 54.9297 42.565 54.3185 41.9952C54.1793 41.8665 54.0107 41.4779 53.9911 40.8078C53.9643 39.8839 54.2274 39.1025 54.4271 38.894C54.5804 38.7341 54.7905 38.5153 54.9493 38.4864C55.089 38.4618 55.3297 38.5568 55.5229 38.6326L56.9515 39.1985C57.6789 39.4866 58.4069 39.8151 58.6268 40.3799C58.7092 40.5922 58.7278 40.8602 58.7474 41.1439L58.8031 41.9669C58.6901 41.9838 58.5673 42.0023 58.4358 42.0231ZM60.5363 37.4577C60.5439 37.4572 60.5504 37.4572 60.5581 37.4572C60.6907 37.4572 60.7742 37.4997 60.7818 37.4883C60.7933 37.5139 60.8058 37.6012 60.8107 37.6301C60.9144 38.3117 60.9346 39.0042 60.8708 39.6907C60.8091 40.3483 60.6776 40.8285 60.4571 41.2018C60.3594 41.3666 60.2361 41.503 60.1035 41.6192L60.0648 41.055C60.0408 40.7019 60.0129 40.3019 59.8574 39.9014C59.6424 39.3491 59.2522 38.9535 58.7938 38.6457C58.9668 38.4089 59.1403 38.2031 59.3744 37.993C59.7455 37.658 60.1586 37.4681 60.5363 37.4577ZM58.2858 32.6206C58.3845 33.9761 58.6263 35.3229 58.993 36.6321C58.963 36.6512 58.9341 36.673 58.9046 36.6932C58.8931 36.6452 58.8789 36.6015 58.8675 36.5513C58.5652 35.2072 58.3387 33.8337 58.1832 32.4612C58.2126 32.4651 58.2427 32.47 58.2727 32.4738C58.2787 32.5295 58.283 32.5862 58.2858 32.6206ZM47.0263 27.7589C47.0961 27.5843 47.3455 27.4026 47.5458 27.2569L54.6126 22.1087C56.6699 20.6102 57.8028 19.784 60.1313 20.7608C61.2675 21.2377 62.3906 21.7774 63.4694 22.3652C64.6667 23.0173 66.0069 23.8408 66.8735 25.0129C67.7406 26.1862 67.9906 27.6399 67.5104 28.715C67.1507 29.5199 66.4342 30.0694 65.8967 30.3887C63.5491 31.7824 60.5373 31.4822 57.3996 31.0189L51.4323 30.1382C49.7864 29.8948 48.3474 29.6165 47.411 28.6702C47.1534 28.4105 46.9231 28.0143 47.0263 27.7589Z" fill="#C87575"/>
<path d="M50.1273 61.6052C50.4602 61.6052 50.8138 61.5833 51.1669 61.466C51.8758 61.2314 52.3707 60.6786 52.6807 60.2829C53.8228 58.8286 54.4455 57.0109 54.4373 55.1609C55.2477 55.371 56.0853 55.4807 56.923 55.4807C57.3126 55.4807 57.7028 55.4573 58.0897 55.4109C58.6681 55.341 59.5047 55.1795 60.0924 54.5809C60.5661 54.0985 60.7582 53.454 60.8837 52.887C61.0589 52.0952 61.2204 51.0545 60.9104 50.0308C60.5661 48.8935 59.6384 48.0439 58.6032 47.9156C57.5975 47.7918 56.7494 48.3004 56.0013 48.75C55.8578 48.8368 55.7148 48.9225 55.5718 49.0032C54.7047 49.4911 53.7284 49.7743 52.7374 49.8458C52.5279 49.5184 52.3161 49.2106 52.1115 48.9426C50.6163 46.9836 48.9868 45.0523 46.9601 44.8417C45.8785 44.7265 44.8056 45.1244 43.772 46.0149V46.0155C41.9117 47.6199 40.5142 49.8049 39.8381 52.1667C39.6645 52.7729 39.4823 53.5746 39.6149 54.3964C39.7388 55.1637 40.1126 55.818 40.4242 56.3009C42.4749 59.4862 46.2474 61.5675 50.0351 61.6035C50.0651 61.6046 50.0962 61.6052 50.1273 61.6052ZM59.228 49.675C59.3732 49.8338 59.4949 50.0253 59.5827 50.2403C59.0294 50.6059 58.3647 50.7838 57.7661 50.911C56.4089 51.2002 55.0086 51.3694 53.6373 51.5211C53.6215 51.4845 53.6035 51.4518 53.5876 51.4158C55.5462 51.1795 57.4791 50.5836 59.228 49.675ZM57.8348 51.233C58.434 51.1058 59.0992 50.9279 59.6799 50.5699C59.7956 51.0567 59.7819 51.6302 59.6373 52.3713C57.7568 52.3697 55.8654 52.4062 53.9958 52.4794C53.9254 52.2589 53.8452 52.0482 53.7623 51.8387C55.114 51.6886 56.4919 51.5195 57.8348 51.233ZM54.0886 52.8073C55.9063 52.738 57.7437 52.7058 59.5713 52.702C59.5282 52.8875 59.4763 53.0687 59.4087 53.2341C57.6684 53.072 55.908 53.012 54.1584 53.0578C54.1372 52.9732 54.1121 52.8908 54.0886 52.8073ZM57.9325 54.1006C56.7129 54.248 55.4659 54.1137 54.2987 53.7367C54.2785 53.6199 54.2616 53.5009 54.237 53.3858C55.902 53.3416 57.5756 53.3994 59.2324 53.5478C59.2051 53.5844 59.1817 53.6253 59.1505 53.657C58.8542 53.9598 58.3134 54.0553 57.9325 54.1006ZM56.219 50.153C56.3724 50.0668 56.5263 49.9746 56.6812 49.8818C57.3011 49.508 57.8867 49.1555 58.4411 49.2253C58.6223 49.2477 58.7997 49.3246 58.9639 49.4392C57.2471 50.3145 55.3541 50.8832 53.4387 51.1009L53.4381 51.0998C54.4122 50.9547 55.3606 50.6365 56.219 50.153ZM41.5336 55.5871C41.2913 55.2117 41.0021 54.7129 40.9175 54.1869C40.8263 53.6221 40.9704 53.0049 41.1063 52.5301C41.7126 50.4122 42.9655 48.4537 44.6337 47.0141V47.0147C45.3917 46.3615 46.1082 46.0804 46.8236 46.1541C48.327 46.3107 49.7421 48.0128 51.0627 49.7432C51.9909 50.9601 53.1014 52.8854 53.1189 55.1451C53.1314 56.7058 52.607 58.2409 51.6433 59.4676C51.3175 59.8835 51.0343 60.1198 50.7527 60.2131C50.5497 60.2802 50.2949 60.2846 50.0487 60.2846C46.6921 60.2535 43.3502 58.4095 41.5336 55.5871Z" fill="#C87575"/>
<path d="M23.7387 80.4029L20.8956 76.5371H19.1963V82.7772H20.8956V78.9464L23.7387 82.7772H25.4375V76.5371H23.7387V80.4029Z" fill="#C87575"/>
<path d="M36.201 76.5815H34.2436L31.6689 82.7775H33.4583L33.896 81.6391H36.5301L36.9666 82.7775H38.7756L36.201 76.5815ZM34.3325 80.4915L35.2171 78.1963L36.0924 80.4915H34.3325Z" fill="#C87575"/>
<path d="M44.541 77.7371H46.4286V82.7772H48.1388V77.7371H50.0466V76.5371H44.541V77.7371Z" fill="#C87575"/>
<path d="M61.7343 81.6252C61.9924 81.2225 62.1218 80.7265 62.1218 80.1382V76.5371H60.4219V80.1382C60.4219 80.5497 60.3177 80.8651 60.1092 81.0828C59.9008 81.3006 59.5968 81.4092 59.1995 81.4092C58.8023 81.4092 58.4994 81.3006 58.2904 81.0828C58.0819 80.8651 57.9772 80.5497 57.9772 80.1382V76.5371H56.2871V80.1382C56.2871 80.7265 56.4099 81.2236 56.6549 81.6296C56.8999 82.0356 57.2383 82.339 57.6688 82.5388C58.0988 82.739 58.596 82.8389 59.1592 82.8389C59.7223 82.8389 60.2282 82.7374 60.6751 82.5344C61.1226 82.3314 61.4757 82.0285 61.7343 81.6252Z" fill="#C87575"/>
<path d="M73.8644 79.6701C74.146 79.3525 74.2862 78.9672 74.2862 78.5143C74.2862 78.1317 74.1902 77.7917 73.9981 77.4943C73.8054 77.1975 73.5173 76.9634 73.1331 76.7926C72.7484 76.6223 72.278 76.5366 71.7214 76.5366H68.8193V82.7767H70.5192V80.4204H70.9067L72.4281 82.7767H74.3064L72.6371 80.3233C73.1735 80.2054 73.5822 79.9877 73.8644 79.6701ZM72.3184 79.1893C72.159 79.3214 71.9102 79.3879 71.573 79.3879H70.5198V77.8081H71.573C71.9042 77.8081 72.1509 77.8785 72.3135 78.0198C72.4756 78.1606 72.5569 78.3549 72.5569 78.6021C72.5569 78.8619 72.4777 79.0567 72.3184 79.1893Z" fill="#C87575"/>
<path d="M82.7748 76.5815L80.2002 82.7775H81.9896L82.4272 81.6391H85.0613L85.4979 82.7775H87.3069L84.7323 76.5815H82.7748ZM82.8632 80.4915L83.7478 78.1963L84.6231 80.4915H82.8632Z" fill="#C87575"/>
<path d="M95.2277 76.5371H93.5283V82.7772H97.494V81.6203H95.2277V76.5371Z" fill="#C87575"/>
<path d="M33.0163 88.5273H31.7617V92.2485H32.1836V90.6971H33.0163C33.472 90.6971 33.819 90.6032 34.0586 90.4144C34.2987 90.2261 34.4188 89.9593 34.4188 89.6149C34.4188 89.2771 34.3031 89.0119 34.0706 88.8177C33.8387 88.6239 33.4872 88.5273 33.0163 88.5273ZM33.759 90.1825C33.6002 90.3145 33.3404 90.38 32.9797 90.38H32.183V88.8389H32.9797C33.3404 88.8389 33.6002 88.9044 33.759 89.037C33.9178 89.1691 33.9969 89.3617 33.9969 89.6149C33.9969 89.861 33.9178 90.0504 33.759 90.1825Z" fill="#C87575"/>
<path d="M40.7986 90.3587C40.9951 90.1759 41.0933 89.9297 41.0933 89.6198C41.0933 89.2858 40.9771 89.0201 40.7451 88.8231C40.5132 88.6266 40.1612 88.5278 39.6903 88.5278H38.4062V92.249H38.8281V90.6976H39.5058L40.6524 92.249H41.1277L39.9451 90.6866C40.3184 90.6512 40.6027 90.5415 40.7986 90.3587ZM38.8286 90.4165V88.8487H39.6608C40.3342 88.8487 40.6715 89.1128 40.6715 89.6405C40.6715 90.1579 40.3342 90.4165 39.6608 90.4165H38.8286Z" fill="#C87575"/>
<path d="M48.0659 88.7282C47.7565 88.5667 47.4078 88.4854 47.0192 88.4854C46.6307 88.4854 46.282 88.5667 45.9731 88.7282C45.6642 88.8897 45.4214 89.1156 45.2446 89.4043C45.0689 89.6925 44.9805 90.0193 44.9805 90.3855C44.9805 90.7517 45.0689 91.0796 45.2446 91.3699C45.4214 91.6608 45.6642 91.8867 45.9731 92.0483C46.282 92.2098 46.6307 92.2911 47.0192 92.2911C47.4078 92.2911 47.7565 92.2098 48.0659 92.0483C48.3748 91.8867 48.617 91.6603 48.7939 91.3699C48.9696 91.0791 49.058 90.7517 49.058 90.3855C49.058 90.0193 48.9696 89.6925 48.7939 89.4043C48.6176 89.1151 48.3748 88.8897 48.0659 88.7282ZM48.419 91.2084C48.2787 91.4442 48.0866 91.6253 47.8427 91.7519C47.5982 91.8791 47.3248 91.9418 47.0192 91.9418C46.7136 91.9418 46.4402 91.8785 46.1958 91.7519C45.9524 91.6248 45.7603 91.4442 45.6195 91.2084C45.4787 90.9727 45.4083 90.6982 45.4083 90.3849C45.4083 90.0717 45.4787 89.7972 45.6195 89.5615C45.7603 89.3257 45.9518 89.1446 46.1958 89.0174C46.4402 88.8914 46.7136 88.8281 47.0192 88.8281C47.3248 88.8281 47.5988 88.8914 47.8427 89.0174C48.0861 89.1446 48.2782 89.3252 48.419 89.5615C48.5597 89.7972 48.6301 90.0717 48.6301 90.3849C48.6307 90.6982 48.5603 90.9727 48.419 91.2084Z" fill="#C87575"/>
<path d="M54.4125 88.5273H53.1465V92.2485H54.4125C54.8802 92.2485 55.2791 92.1737 55.6103 92.0242C55.9405 91.8747 56.1915 91.6602 56.3618 91.3797C56.532 91.0998 56.6172 90.7691 56.6172 90.3849C56.6172 89.8043 56.4262 89.3497 56.0436 89.0207C55.6622 88.6921 55.1181 88.5273 54.4125 88.5273ZM55.732 91.5118C55.4232 91.7808 54.973 91.9156 54.3831 91.9156H53.5689V88.8548H54.3831C54.973 88.8548 55.4232 88.989 55.732 89.258C56.0414 89.5276 56.1953 89.9031 56.1953 90.3849C56.1953 90.8679 56.0414 91.2428 55.732 91.5118Z" fill="#C87575"/>
<path d="M63.2867 90.7811C63.2867 91.1789 63.1901 91.4703 62.998 91.6569C62.806 91.8436 62.5397 91.9374 62.1991 91.9374C61.8586 91.9374 61.5896 91.8441 61.3937 91.6569C61.1972 91.4709 61.099 91.1789 61.099 90.7811V88.5273H60.6826V90.7811C60.6826 91.2842 60.819 91.6608 61.093 91.9107C61.3664 92.1606 61.7326 92.2851 62.1926 92.2851C62.6526 92.2851 63.0193 92.1606 63.2922 91.9107C63.5656 91.6608 63.702 91.2842 63.702 90.7811V88.5273H63.2862V90.7811H63.2867Z" fill="#C87575"/>
<path d="M68.9593 89.0239C69.195 88.8968 69.458 88.834 69.7473 88.834C70.1276 88.834 70.4463 88.9132 70.7039 89.0709C70.9609 89.2291 71.1453 89.4425 71.2567 89.7099H71.696C71.5612 89.3295 71.3292 89.0316 71.0007 88.8149C70.6711 88.5983 70.2558 88.4902 69.7527 88.4902C69.368 88.4902 69.0253 88.571 68.7246 88.7303C68.4228 88.8908 68.1898 89.1151 68.0228 89.4037C67.8564 89.6919 67.7734 90.0209 67.7734 90.3904C67.7734 90.7565 67.8564 91.0829 68.0228 91.3699C68.1898 91.6564 68.4228 91.8807 68.7246 92.0433C69.0253 92.2048 69.3685 92.2856 69.7527 92.2856C70.2558 92.2856 70.6717 92.1776 71.0007 91.9615C71.3292 91.7448 71.5612 91.4469 71.696 91.0665H71.2567C71.1453 91.3339 70.9609 91.5467 70.7039 91.705C70.4463 91.8632 70.1271 91.9429 69.7473 91.9429C69.458 91.9429 69.195 91.8796 68.9593 91.753C68.7235 91.6258 68.5385 91.4463 68.4037 91.2117C68.2689 90.9776 68.2013 90.7047 68.2013 90.3909C68.2013 90.0777 68.2689 89.8032 68.4037 89.5675C68.5385 89.3317 68.7235 89.15 68.9593 89.0239Z" fill="#C87575"/>
<path d="M75.4414 88.8286H76.63V92.2485H77.0463V88.8286H78.2409V88.5273H75.4414V88.8286Z" fill="#C87575"/>
<path d="M84.0927 90.4276C83.9285 90.3572 83.7135 90.2852 83.4477 90.211C83.218 90.1439 83.0368 90.0838 82.9036 90.0315C82.771 89.9785 82.6586 89.9032 82.568 89.8044C82.4763 89.7057 82.4316 89.5774 82.4316 89.4192C82.4316 89.2189 82.5042 89.0623 82.651 88.9493C82.7972 88.8364 82.9937 88.7807 83.2392 88.7807C83.5045 88.7807 83.714 88.8418 83.8663 88.9657C84.0191 89.0885 84.1129 89.2293 84.1489 89.3875H84.5942C84.5511 89.1305 84.4136 88.916 84.1811 88.7436C83.9497 88.5711 83.6354 88.4844 83.2392 88.4844C82.8507 88.4844 82.5456 88.5728 82.3241 88.7485C82.102 88.9242 81.9912 89.1529 81.9912 89.4344C81.9912 89.656 82.0469 89.8339 82.1577 89.9671C82.2684 90.1013 82.4043 90.2023 82.5648 90.2705C82.7252 90.3392 82.9364 90.4102 83.1983 90.4844C83.4362 90.5515 83.6229 90.6126 83.7593 90.6694C83.8963 90.7256 84.0114 90.8053 84.1042 90.9089C84.1975 91.0126 84.2439 91.1474 84.2439 91.3128C84.2439 91.5059 84.1735 91.6664 84.0332 91.793C83.8919 91.9201 83.6894 91.9829 83.4237 91.9829C83.2212 91.9829 83.0493 91.9469 82.9069 91.8748C82.7639 91.8034 82.6553 91.7122 82.5795 91.6036C82.5042 91.4939 82.4589 91.3853 82.4425 91.2762H82.0027C82.0229 91.4661 82.0944 91.6375 82.2199 91.7903C82.3448 91.9436 82.5124 92.0642 82.7225 92.1521C82.932 92.2399 83.1716 92.2836 83.4411 92.2836C83.7184 92.2836 83.9503 92.2372 84.1364 92.1439C84.3225 92.0511 84.4605 91.9294 84.5495 91.7799C84.639 91.6304 84.6837 91.4716 84.6837 91.3024C84.6837 91.0699 84.6264 90.8833 84.5113 90.7425C84.3972 90.6039 84.257 90.498 84.0927 90.4276Z" fill="#C87575"/>
<path d="M68.0193 68.9126H50.1055V70.4962H68.0193V68.9126Z" fill="#C87575"/>
<path d="M8.06543 37.4135C7.62613 36.7668 7.0275 36.2822 6.27006 35.9597C5.51208 35.6388 4.75082 35.5422 3.9852 35.6721C3.22012 35.8036 2.52653 36.1311 1.90333 36.6555C1.28014 37.1799 0.794464 37.8528 0.44685 38.6735C0.10142 39.4866 -0.0437401 40.2986 0.011376 41.1117C0.0659465 41.9248 0.310968 42.6528 0.74644 43.2983C1.18191 43.9439 1.77946 44.4274 2.5369 44.7494C3.29434 45.0702 4.05887 45.1657 4.8294 45.0326C5.59993 44.9 6.29625 44.5698 6.91945 44.0454C7.5421 43.521 8.02668 42.852 8.37102 42.0389C8.71645 41.2269 8.86161 40.4154 8.80649 39.6023C8.75192 38.7897 8.50472 38.0607 8.06543 37.4135ZM6.62259 41.2978C6.329 41.987 5.89625 42.4498 5.32326 42.6855C4.75027 42.9213 4.1249 42.8956 3.44713 42.608C2.76227 42.3166 2.30716 41.8839 2.08233 41.3092C1.85804 40.7346 1.89242 40.1016 2.18492 39.4124C2.47741 38.7232 2.91125 38.2604 3.48369 38.0247C4.05723 37.7889 4.68261 37.8146 5.36037 38.1032C6.03813 38.3908 6.48998 38.8247 6.71645 39.4047C6.94237 39.9859 6.91126 40.6157 6.62259 41.2978Z" fill="#C87575"/>
<path d="M13.5804 25.3305C13.4652 24.7712 13.1645 24.3084 12.6767 23.9428C12.2652 23.6334 11.8216 23.4637 11.3468 23.4298C10.872 23.396 10.3874 23.5177 9.89303 23.7933C9.39971 24.0689 8.92713 24.5071 8.47802 25.1062L6.13477 28.2298L12.8513 33.2683L14.2237 31.4386L11.6873 29.5368L12.0005 29.1193L15.7648 29.3862L17.2819 27.3644L13.2922 27.1799C13.5989 26.5065 13.695 25.891 13.5804 25.3305ZM11.4265 27.5685L10.5757 28.7024L8.87529 27.4266L9.7255 26.2926C9.9929 25.9357 10.269 25.7267 10.5517 25.6661C10.8349 25.6056 11.1089 25.6754 11.3752 25.8751C11.654 26.0841 11.8003 26.3275 11.8145 26.6058C11.8292 26.8831 11.6993 27.2039 11.4265 27.5685Z" fill="#C87575"/>
<path d="M24.5024 14.4671L20.802 17.5264L21.7324 18.6516L23.9595 16.8115C24.1412 17.2988 24.1586 17.7741 24.0118 18.2407C23.865 18.7062 23.5813 19.1116 23.1627 19.4582C22.5095 19.9984 21.87 20.2494 21.244 20.2123C20.6181 20.1747 20.05 19.8489 19.5403 19.2317C19.071 18.6647 18.8675 18.0759 18.9292 17.4652C18.9908 16.8546 19.3002 16.3182 19.8563 15.8581C20.2137 15.5629 20.5766 15.379 20.9444 15.3053C21.3117 15.2333 21.6539 15.2617 21.9687 15.3916L23.8345 13.8489C23.13 13.2911 22.3185 13.0576 21.3996 13.1493C20.4806 13.2409 19.5644 13.665 18.6503 14.4197C17.9212 15.0216 17.399 15.6879 17.0825 16.4169C16.7654 17.1466 16.6645 17.8849 16.7791 18.632C16.8937 19.3796 17.2156 20.0737 17.7455 20.7144C18.2749 21.355 18.8959 21.802 19.6086 22.0557C20.3212 22.3084 21.0667 22.3471 21.8465 22.1703C22.6252 21.9935 23.3821 21.6006 24.1183 20.9938C24.7224 20.4939 25.1775 19.9487 25.4814 19.3572C25.7859 18.7673 25.9556 18.1861 25.9906 17.6126C26.0255 17.039 25.9556 16.507 25.7805 16.0148L24.5024 14.4671Z" fill="#C87575"/>
<path d="M33.2567 13.0559L36.4606 11.5405L37.6475 12.6745L39.8478 11.6333L33.152 5.57812L30.7705 6.70446L31.2033 15.7222L33.3801 14.6925L33.2567 13.0559ZM32.8846 8.1091L35.2687 10.3978L33.129 11.4095L32.8846 8.1091Z" fill="#C87575"/>
<path d="M46.5416 9.81037L45.5517 4.75224L50.295 9.07585L52.5394 8.63656L50.9269 0.396973L48.6824 0.835174L49.681 5.94078L44.9285 1.56969L42.6846 2.00898L44.2971 10.2497L46.5416 9.81037Z" fill="#C87575"/>
<path d="M58.1123 0.000202651L57.9746 8.39502L60.2609 8.43252L60.3986 0.0377012L58.1123 0.000202651Z" fill="#C87575"/>
<path d="M67.6903 8.55869C68.302 9.04818 69.0573 9.38325 69.9583 9.56279C71.1381 9.79853 72.1705 9.71722 73.0551 9.31667C73.9397 8.91612 74.5886 8.27165 75.0022 7.38652L72.6284 6.9123C72.3785 7.25009 72.051 7.49075 71.6445 7.63645C71.2385 7.78052 70.7861 7.80398 70.2879 7.70357C69.6325 7.57369 69.1452 7.25664 68.8276 6.75241C68.51 6.24872 68.4232 5.64026 68.5656 4.92539C68.7086 4.21161 69.0229 3.68173 69.5108 3.33412C69.9981 2.98759 70.57 2.88064 71.2254 3.01051C71.7242 3.11092 72.1329 3.30574 72.4521 3.59551C72.7714 3.88528 72.9804 4.23726 73.0797 4.65363L75.4535 5.12675C75.4137 4.1423 75.0628 3.29701 74.3987 2.59196C73.7351 1.88582 72.8128 1.41433 71.6325 1.17968C70.7321 0.999049 69.9059 1.01706 69.1533 1.23534C68.4008 1.45198 67.7754 1.84216 67.2767 2.40424C66.7774 2.9674 66.4467 3.65554 66.2846 4.47136C66.1214 5.28555 66.1618 6.05009 66.4063 6.76005C66.6513 7.47001 67.0791 8.07028 67.6903 8.55869Z" fill="#C87575"/>
<path d="M90.9889 8.5134C90.1943 8.05228 89.4058 7.80344 88.6232 7.76579C87.8412 7.72868 87.1237 7.89621 86.4694 8.26729C85.8161 8.63837 85.2803 9.18353 84.8639 9.90386C84.447 10.6231 84.2385 11.3576 84.2412 12.1101C84.2429 12.8616 84.4546 13.5677 84.8753 14.2275C85.2961 14.8883 85.904 15.4493 86.698 15.9104C87.7392 16.5134 88.7428 16.7688 89.7097 16.6744C90.6762 16.5816 91.4986 16.1805 92.1758 15.476L90.0819 14.2608C89.7376 14.5003 89.349 14.6231 88.9179 14.6291C88.4868 14.6357 88.0513 14.5107 87.6121 14.2553C87.0331 13.9202 86.6745 13.4629 86.5365 12.8839C86.3979 12.3055 86.5119 11.7009 86.877 11.0706C87.2421 10.4403 87.7119 10.0397 88.2849 9.86839C88.8584 9.69813 89.4342 9.77944 90.0132 10.1156C90.4524 10.3704 90.7766 10.6864 90.9851 11.064C91.1941 11.4417 91.2786 11.8422 91.2377 12.2673L93.3316 13.4809C93.6115 12.5363 93.5515 11.6228 93.151 10.7415C92.7504 9.8602 92.0295 9.1164 90.9889 8.5134Z" fill="#C87575"/>
<path d="M102.474 17.2183L94.1709 20.7648L95.8931 22.4467L97.3845 21.7613L99.9199 24.2366L99.27 25.7443L101.011 27.4453L104.357 19.06L102.474 17.2183ZM100.578 22.7211L98.8841 21.0677L101.893 19.6903L100.578 22.7211Z" fill="#C87575"/>
<path d="M110.838 32.9553L109.209 30.4413L110.756 29.4399L112.863 32.695L114.218 31.8175L110.868 26.6421L103.82 31.2064L105.063 33.1256L107.914 31.28L109.541 33.7941L110.838 32.9553Z" fill="#C87575"/>
<path d="M109.425 40.8842L111.567 46.3647L113.082 45.7715L111.773 42.4214L113.509 41.742L114.672 44.7188L116.1 44.1622L114.936 41.1854L116.573 40.5453L117.882 43.8954L119.388 43.3077L117.246 37.8271L109.425 40.8842Z" fill="#C87575"/>
<path d="M124.112 38.0273L120.236 38.0355L121.124 39.8669L125 39.8582L124.112 38.0273Z" fill="#C87575"/>
</svg>
