<svg width="100" height="90" viewBox="0 0 100 90" fill="none" xmlns="http://www.w3.org/2000/svg">
<path d="M38.2227 65.6289V66.873H36.3906V73.1895H34.873V60.8574H36.3906V65.6289H38.2227ZM28.6523 62.0605V68.8828C30.2998 68.8555 32.0566 68.7119 33.916 68.3223L34.0801 69.6074C32.002 70.0176 30.0195 70.1406 28.1875 70.1406H27.1484V62.0605H28.6523ZM48.8047 64.002V65.2324H40.2734V61.0625H41.791V64.002H48.8047ZM50.0898 66.2988V67.5293H45.168V68.7734H48.6816V73.0527H40.2324V68.7734H43.6504V67.5293H38.8105V66.2988H50.0898ZM41.709 69.9629V71.8496H47.2051V69.9629H41.709ZM57.1992 62.0605V70.1543H51.3477V62.0605H57.1992ZM52.8379 63.25V68.9375H55.6816V63.25H52.8379ZM60.5898 60.8574V65.6016H62.4902V66.8867H60.5898V73.2168H59.0723V60.8574H60.5898ZM73.6328 60.8711V69.1699H72.1836V60.8711H73.6328ZM71.1172 61.0762V68.0625H69.668V65.5742H67.6582C66.9268 66.9482 65.6689 68.0557 63.7207 68.8965L62.9961 67.8027C64.582 67.1328 65.6211 66.2988 66.25 65.3008L63.2832 65.6289L63.0781 64.3848L66.7695 64.1934C66.8721 63.8311 66.9473 63.4551 66.9883 63.0586H63.625V61.8281H68.4785C68.4785 62.7305 68.376 63.5713 68.1504 64.3438H69.668V61.0762H71.1172ZM70.1191 68.7734C70.1191 70.2363 71.7324 71.6309 74.2344 71.9727L73.6465 73.1484C71.6846 72.8477 70.1533 71.9385 69.3809 70.6738C68.6084 71.9385 67.0635 72.8477 65.1152 73.1484L64.5 71.9727C67.0156 71.6309 68.6152 70.2363 68.6289 68.7734V68.459H70.1191V68.7734Z" fill="#3D3D3D"/>
<path d="M58.4503 47.3001L57.2753 48.4835C56.424 49.3351 55.4133 50.0107 54.3009 50.4717C53.1884 50.9326 51.9961 51.1699 50.7919 51.1699C49.5878 51.1699 48.3954 50.9326 47.283 50.4717C46.1706 50.0107 45.1599 49.3351 44.3086 48.4835L39.5919 43.7668C39.141 43.3145 38.8802 42.7068 38.8632 42.0684C38.8462 41.4299 39.0741 40.8092 39.5003 40.3335C39.5669 40.4251 39.9669 40.8085 44.3086 45.1501C45.1599 46.0018 46.1706 46.6774 47.283 47.1383C48.3954 47.5993 49.5878 47.8365 50.7919 47.8365C51.9961 47.8365 53.1884 47.5993 54.3009 47.1383C55.4133 46.6774 56.424 46.0018 57.2753 45.1501C58.8669 43.5418 60.4253 42.1751 60.9836 39.1501C61.254 40.6122 61.1646 42.1181 60.7233 43.538C60.2819 44.9578 59.5018 46.249 58.4503 47.3001Z" fill="#F6CCAF"/>
<path d="M57.2753 45.1501C56.424 46.0017 55.4133 46.6773 54.3009 47.1383C53.1884 47.5992 51.9961 47.8364 50.792 47.8364C49.5878 47.8364 48.3955 47.5992 47.283 47.1383C46.1706 46.6773 45.1599 46.0017 44.3086 45.1501C38.967 39.8084 39.4336 40.3917 39.592 40.2334C39.9591 39.8658 40.4317 39.6218 40.9439 39.5351C41.4562 39.4485 41.9827 39.5236 42.4503 39.7501C43.0336 40.0251 44.117 41.1751 41.367 38.4667C40.9152 38.0144 40.6538 37.4062 40.6367 36.7672C40.6195 36.1281 40.8478 35.5067 41.2746 35.0308C41.7014 34.5549 42.2944 34.2606 42.9316 34.2084C43.5687 34.1561 44.2017 34.35 44.7003 34.7501L43.8086 33.8501C43.4566 33.5009 43.2163 33.0549 43.1184 32.5688C43.0204 32.0827 43.0693 31.5785 43.2586 31.1202C43.448 30.662 43.7694 30.2704 44.1819 29.9952C44.5944 29.7201 45.0794 29.5738 45.5753 29.5751C46.1633 29.5743 46.7328 29.7809 47.1836 30.1584C45.117 28.0501 44.4253 27.6584 44.2253 26.6334C44.1215 26.1135 44.1857 25.574 44.4086 25.0929C44.6316 24.6119 45.0016 24.2141 45.4654 23.9572C45.9292 23.7003 46.4627 23.5974 46.9887 23.6636C47.5148 23.7297 48.0062 23.9613 48.392 24.3251C60.8336 36.7001 64.4086 37.9667 57.2753 45.1501Z" fill="#FFDEC7"/>
<path d="M58.009 25.5C58.009 26.8083 57.4423 27.1 54.3257 30.2166L50.834 26.6833L53.784 23.7333C54.1355 23.398 54.5771 23.1725 55.0548 23.0841C55.5325 22.9958 56.0256 23.0486 56.4738 23.236C56.922 23.4234 57.3058 23.7373 57.5785 24.1394C57.8511 24.5415 58.0007 25.0143 58.009 25.5Z" fill="#F6CCAF"/>
<path d="M53.7338 37.875C46.7671 30.9084 46.0838 30.6084 46.6755 29.825C47.1255 30.0334 47.5088 30.5084 46.7588 29.7167C46.8363 29.6386 46.9284 29.5766 47.03 29.5343C47.1315 29.492 47.2404 29.4702 47.3505 29.4702C47.4605 29.4702 47.5694 29.492 47.6709 29.5343C47.7725 29.5766 47.8647 29.6386 47.9421 29.7167L54.9171 36.6917C55.074 36.8486 55.1622 37.0615 55.1622 37.2834C55.1622 37.5053 55.074 37.7181 54.9171 37.875C54.7602 38.032 54.5474 38.1201 54.3255 38.1201C54.1035 38.1201 53.8907 38.032 53.7338 37.875Z" fill="#F6CCAF"/>
<path d="M46.6672 44.9499L42.5422 40.8249C42.4019 40.6856 42.3157 40.5011 42.2989 40.3042C42.2821 40.1073 42.3359 39.9108 42.4505 39.7498C42.9672 39.9915 43.6505 40.7498 42.5422 39.6415C42.6197 39.5634 42.7118 39.5014 42.8134 39.4591C42.9149 39.4168 43.0239 39.395 43.1339 39.395C43.2439 39.395 43.3528 39.4168 43.4543 39.4591C43.5559 39.5014 43.6481 39.5634 43.7255 39.6415L47.8922 43.7665C48.0491 43.929 48.1351 44.1471 48.1312 44.3729C48.1273 44.5987 48.0338 44.8138 47.8714 44.9707C47.7089 45.1276 47.4908 45.2136 47.265 45.2097C47.0391 45.2058 46.8241 45.1123 46.6672 44.9499Z" fill="#F6CCAF"/>
<path d="M50.2007 41.4166L44.2173 35.4332C44.0829 35.2982 43.9988 35.1211 43.9791 34.9315C43.9594 34.742 44.0052 34.5514 44.109 34.3916C44.6423 34.5916 45.1007 35.1499 44.2173 34.2499C44.2951 34.1692 44.3883 34.1051 44.4914 34.0613C44.5944 34.0175 44.7053 33.9949 44.8173 33.9949C44.9293 33.9949 45.0402 34.0175 45.1433 34.0613C45.2464 34.1051 45.3396 34.1692 45.4173 34.2499L51.384 40.2166C51.5431 40.3735 51.6334 40.5872 51.635 40.8107C51.6365 41.0341 51.5492 41.2491 51.3923 41.4082C51.2354 41.5674 51.0217 41.6576 50.7982 41.6592C50.5747 41.6608 50.3598 41.5735 50.2007 41.4166Z" fill="#F6CCAF"/>
<path d="M55.1249 17.0001C53.3332 18.7667 51.9915 20.1167 50.8332 21.2667C46.1832 16.6167 45.8332 16.5251 45.8332 15.2667C45.8273 14.7813 45.9672 14.3054 46.2348 13.9004C46.5024 13.4954 46.8854 13.18 47.3342 12.9951C47.7831 12.8102 48.2771 12.7642 48.7523 12.8632C49.2275 12.9621 49.6621 13.2014 49.9999 13.5501L50.8332 14.3834C51.6665 13.5584 52.2165 12.8334 53.4082 12.8334C53.8917 12.8316 54.3649 12.974 54.7672 13.2423C55.1695 13.5106 55.4827 13.8927 55.6669 14.3398C55.8511 14.7869 55.8979 15.2787 55.8014 15.7525C55.7048 16.2264 55.4693 16.6607 55.1249 17.0001Z" fill="#DE4A8C"/>
<path d="M55.1249 17.0001L54.0499 18.0834C53.847 18.2868 53.6061 18.4481 53.3408 18.5582C53.0756 18.6683 52.7912 18.7249 52.504 18.7249C52.2168 18.7249 51.9325 18.6683 51.6672 18.5582C51.4019 18.4481 51.161 18.2868 50.9582 18.0834C48.4582 15.5834 47.1082 14.7501 47.6249 12.9501C49.1665 12.4918 49.9999 13.5751 50.8332 14.4084C51.6665 13.5751 51.9749 13.1668 52.7165 12.9334C53.2376 12.7757 53.7965 12.7973 54.3039 12.9947C54.8113 13.1922 55.2378 13.5541 55.5152 14.0225C55.7926 14.4909 55.9049 15.0389 55.8341 15.5787C55.7634 16.1185 55.5136 16.619 55.1249 17.0001Z" fill="#F26DA6"/>
</svg>
