<svg width="100" height="90" viewBox="0 0 100 90" fill="none" xmlns="http://www.w3.org/2000/svg">
<path d="M50.1035 70.4688V71.7129H38.8105V70.4688H43.6777V67.7754H40.0547V61.8145H48.8047V67.7754H45.1816V70.4688H50.1035ZM41.5449 63.0312V66.5859H47.3008V63.0312H41.5449ZM61.2051 60.8711V67.8711H59.6738V60.8711H61.2051ZM61.2051 68.4727V73.0664H53.002V68.4727H61.2051ZM54.5059 69.6758V71.8359H59.7148V69.6758H54.5059ZM54.4648 61.459C56.3652 61.459 57.7871 62.6621 57.7871 64.4121C57.7871 66.1074 56.3652 67.3379 54.4648 67.3379C52.5508 67.3379 51.1289 66.1074 51.1289 64.4121C51.1289 62.6621 52.5508 61.459 54.4648 61.459ZM54.4648 62.7441C53.3848 62.7441 52.6055 63.3867 52.6191 64.4121C52.6055 65.4102 53.3848 66.0527 54.4648 66.0527C55.5312 66.0527 56.2969 65.4102 56.2969 64.4121C56.2969 63.3867 55.5312 62.7441 54.4648 62.7441Z" fill="#3D3D3D"/>
<path d="M69.1663 26.1667V43.6667L63.333 49.5001H32.4997C32.0576 49.5001 31.6337 49.3245 31.3212 49.0119C31.0086 48.6994 30.833 48.2754 30.833 47.8334V26.1667H69.1663Z" fill="#DAD7E5"/>
<path d="M69.1665 26.1667V43.6667L64.9999 47.8333H54.9999C49.2589 47.8158 43.7581 45.5274 39.6987 41.4679C35.6392 37.4084 33.3508 31.9076 33.3332 26.1667C33.3332 26.0833 32.1665 26.1667 69.1665 26.1667Z" fill="#EDEBF2"/>
<path d="M69.1663 19.4999V26.1666H30.833V19.4999C30.833 19.0579 31.0086 18.634 31.3212 18.3214C31.6337 18.0088 32.0576 17.8333 32.4997 17.8333H67.4997C67.9417 17.8333 68.3656 18.0088 68.6782 18.3214C68.9907 18.634 69.1663 19.0579 69.1663 19.4999Z" fill="#DB5669"/>
<path d="M69.1663 19.4999V24.4999H39.9997C38.2316 24.4999 36.5359 23.7975 35.2856 22.5473C34.0354 21.2971 33.333 19.6014 33.333 17.8333H67.4997C67.9417 17.8333 68.3656 18.0088 68.6782 18.3214C68.9907 18.634 69.1663 19.0579 69.1663 19.4999Z" fill="#F26674"/>
<path d="M41.6661 16.1667C41.6661 19.775 41.7411 19.825 41.4494 20.3333C41.3228 20.5562 41.1465 20.7469 40.9343 20.8906C40.722 21.0343 40.4795 21.127 40.2255 21.1617C39.9715 21.1964 39.713 21.172 39.47 21.0905C39.227 21.009 39.0061 20.8725 38.8244 20.6917C38.1244 19.9917 38.3327 19.2583 38.3327 16.1667C38.3327 15.7246 38.5083 15.3007 38.8209 14.9882C39.1334 14.6756 39.5574 14.5 39.9994 14.5C40.4414 14.5 40.8653 14.6756 41.1779 14.9882C41.4905 15.3007 41.6661 15.7246 41.6661 16.1667Z" fill="#FFCC66"/>
<path d="M41.6665 16.1667C41.6665 19.775 41.7415 19.825 41.4499 20.3333C41.0464 20.2804 40.6762 20.0818 40.4091 19.7747C40.142 19.4677 39.9964 19.0736 39.9999 18.6667C39.9999 15.0583 39.9249 15.0083 40.2165 14.5C40.62 14.5529 40.9902 14.7516 41.2573 15.0586C41.5244 15.3656 41.67 15.7597 41.6665 16.1667Z" fill="#FFDE76"/>
<path d="M61.6663 16.1667V19.5C61.6663 19.942 61.4907 20.366 61.1782 20.6785C60.8656 20.9911 60.4417 21.1667 59.9997 21.1667C59.5576 21.1667 59.1337 20.9911 58.8212 20.6785C58.5086 20.366 58.333 19.942 58.333 19.5V16.1667C58.333 15.7246 58.5086 15.3007 58.8212 14.9882C59.1337 14.6756 59.5576 14.5 59.9997 14.5C60.4417 14.5 60.8656 14.6756 61.1782 14.9882C61.4907 15.3007 61.6663 15.7246 61.6663 16.1667Z" fill="#FFCC66"/>
<path d="M69.1663 43.6667L63.333 49.5001V43.6667H69.1663Z" fill="#C6C3D8"/>
<path d="M35.833 40.3333H39.1663V43.6666H35.833V40.3333Z" fill="#7C7D7D"/>
<path d="M39.166 40.3333V42.8333C38.503 42.8333 37.8671 42.5699 37.3982 42.101C36.9294 41.6322 36.666 40.9963 36.666 40.3333H39.166Z" fill="#919191"/>
<path d="M44.166 40.3333H47.4993V43.6666H44.166V40.3333Z" fill="#7C7D7D"/>
<path d="M44.166 32H47.4993V35.3333H44.166V32Z" fill="#7C7D7D"/>
<path d="M52.499 40.3333H55.8324V43.6666H52.499V40.3333Z" fill="#7C7D7D"/>
<path d="M52.499 32H55.8324V35.3333H52.499V32Z" fill="#7C7D7D"/>
<path d="M60.833 32H64.1663V35.3333H60.833V32Z" fill="#7C7D7D"/>
<path d="M54.9994 22.8334H44.9993C44.7783 22.8334 44.5664 22.7456 44.4101 22.5893C44.2538 22.4331 44.166 22.2211 44.166 22.0001C44.166 21.7791 44.2538 21.5671 44.4101 21.4108C44.5664 21.2545 44.7783 21.1667 44.9993 21.1667H54.9994C55.2204 21.1667 55.4323 21.2545 55.5886 21.4108C55.7449 21.5671 55.8327 21.7791 55.8327 22.0001C55.8327 22.2211 55.7449 22.4331 55.5886 22.5893C55.4323 22.7456 55.2204 22.8334 54.9994 22.8334Z" fill="#EDEBF2"/>
<path d="M61.6665 16.1667C61.6665 19.775 61.7415 19.825 61.4499 20.3333C61.0464 20.2804 60.6762 20.0818 60.4091 19.7747C60.142 19.4677 59.9964 19.0736 59.9999 18.6667C59.9999 15.0583 59.9249 15.0083 60.2165 14.5C60.62 14.5529 60.9902 14.7516 61.2573 15.0586C61.5244 15.3656 61.67 15.7597 61.6665 16.1667Z" fill="#FFDE76"/>
<path d="M47.5 40.3333V42.8333C46.837 42.8333 46.2011 42.5699 45.7322 42.101C45.2634 41.6322 45 40.9963 45 40.3333H47.5Z" fill="#919191"/>
<path d="M55.833 40.3333V42.8333C55.17 42.8333 54.5341 42.5699 54.0652 42.101C53.5964 41.6322 53.333 40.9963 53.333 40.3333H55.833Z" fill="#919191"/>
<path d="M47.5 32V34.5C46.837 34.5 46.2011 34.2366 45.7322 33.7678C45.2634 33.2989 45 32.663 45 32H47.5Z" fill="#919191"/>
<path d="M55.833 32V34.5C55.17 34.5 54.5341 34.2366 54.0652 33.7678C53.5964 33.2989 53.333 32.663 53.333 32H55.833Z" fill="#919191"/>
<path d="M64.166 32V34.5C63.503 34.5 62.8671 34.2366 62.3982 33.7678C61.9294 33.2989 61.666 32.663 61.666 32H64.166Z" fill="#919191"/>
</svg>
