<svg width="100" height="90" viewBox="0 0 100 90" fill="none" xmlns="http://www.w3.org/2000/svg">
<path d="M37.9902 66.7773V67.9941H26.7109V66.7773H31.6055V65.6016H28.0918V61.418H36.623V62.6074H29.6094V64.3984H36.6914V65.6016H33.0957V66.7773H37.9902ZM32.3301 68.7051C34.9961 68.7051 36.5957 69.5117 36.6094 70.9609C36.5957 72.3965 34.9961 73.2168 32.3301 73.2168C29.6367 73.2168 28.0234 72.3965 28.0234 70.9609C28.0234 69.5117 29.6367 68.7051 32.3301 68.7051ZM32.3301 69.8672C30.5254 69.8672 29.5547 70.25 29.5684 70.9609C29.5547 71.6719 30.5254 72.041 32.3301 72.041C34.0938 72.041 35.0781 71.6719 35.0918 70.9609C35.0781 70.25 34.0938 69.8672 32.3301 69.8672ZM40.8477 62.0879V68.8828C42.0576 68.8691 43.1719 68.7803 44.4297 68.5137L44.6484 69.7988C43.0762 70.1406 41.7227 70.1953 40.1641 70.1953H39.3301V62.0879H40.8477ZM49.4746 60.8574V73.2168H48.0254V60.8574H49.4746ZM46.8223 61.1172V72.6289H45.3867V66.0801H42.8027V64.8496H45.3867V61.1172H46.8223ZM54.7656 63.1543C54.7656 64.4941 55.5449 65.834 57.1719 66.4492L56.3652 67.6113C55.2646 67.1875 54.499 66.4014 54.0547 65.4375C53.6035 66.5449 52.7969 67.4883 51.6211 67.9805L50.8008 66.8184C52.4961 66.0664 53.2891 64.5215 53.3027 63.1543V61.623H54.7656V63.1543ZM61.4785 60.8711V68.4453H60.0293V65.2324H58.7988V68.0625H57.377V61.1035H58.7988V63.9883H60.0293V60.8711H61.4785ZM57.3086 68.6504C59.8926 68.6504 61.5332 69.498 61.5469 70.9199C61.5332 72.3418 59.8926 73.2031 57.3086 73.2031C54.6973 73.2031 53.0703 72.3418 53.0703 70.9199C53.0703 69.498 54.6973 68.6504 57.3086 68.6504ZM57.3086 69.7988C55.5996 69.7988 54.5879 70.1953 54.5879 70.9199C54.5879 71.6582 55.5996 72.041 57.3086 72.041C59.0039 72.041 60.0156 71.6582 60.0156 70.9199C60.0156 70.1953 59.0039 69.7988 57.3086 69.7988ZM72.7988 60.8574V63.8652H74.4668V65.1367H72.7988V68.1309H71.2812V60.8574H72.7988ZM72.7988 68.623V71.2891H66.0859V72.082H73.2363V73.1074H64.5684V70.3457H71.2812V69.6484H64.541V68.623H72.7988ZM62.9004 66.8867C63.8301 66.8867 64.8965 66.8867 66.0176 66.8457V66.2305C64.6299 66.0938 63.7754 65.5332 63.7754 64.6172C63.7754 63.6191 64.9375 63.0312 66.7559 63.0312C68.5742 63.0312 69.7363 63.6191 69.7363 64.6172C69.7363 65.5195 68.9023 66.0801 67.5352 66.2305V66.791C68.5879 66.75 69.6475 66.6611 70.6387 66.5312L70.7617 67.4883C68.123 67.9395 65.2246 67.9531 63.0645 67.9531L62.9004 66.8867ZM70.3105 61.6914V62.7305H63.2148V61.6914H66.0176V60.7617H67.5352V61.6914H70.3105ZM66.7559 63.9883C65.7988 64.002 65.2246 64.207 65.2383 64.6172C65.2246 65.0547 65.7988 65.3008 66.7559 65.3008C67.7129 65.3008 68.2871 65.0547 68.2871 64.6172C68.2871 64.207 67.7129 64.002 66.7559 63.9883Z" fill="#3D3D3D"/>
<g clip-path="url(#clip0_1351_4282)">
<path d="M65.8328 37.8332C65.8364 38.871 65.4463 39.8717 64.7411 40.6332C64.4551 40.9666 64.1141 41.2484 63.7328 41.4665C63.1054 41.823 62.3961 42.0104 61.6745 42.0104C60.9528 42.0104 60.2436 41.823 59.6161 41.4665C58.9359 41.0682 58.3826 40.4852 58.0204 39.785C57.6583 39.0849 57.5022 38.2963 57.5703 37.511C57.6383 36.7257 57.9277 35.9758 58.4049 35.3484C58.8821 34.721 59.5275 34.2418 60.2661 33.9665C60.7109 33.7829 61.1852 33.6813 61.6661 33.6665C62.7712 33.6665 63.831 34.1055 64.6124 34.8869C65.3938 35.6683 65.8328 36.7281 65.8328 37.8332Z" fill="#FFCC66"/>
<path d="M65.8328 37.8332C65.8364 38.8711 65.4463 39.8717 64.7411 40.6332C64.2906 40.801 63.8135 40.8857 63.3328 40.8832C62.6102 40.8841 61.9003 40.6944 61.2744 40.3332C60.7333 40.0236 60.2685 39.5966 59.9143 39.0835C59.5602 38.5704 59.3257 37.9843 59.2281 37.3686C59.1305 36.7528 59.1724 36.123 59.3506 35.5255C59.5288 34.9281 59.8388 34.3782 60.2578 33.9165C60.7083 33.7491 61.1854 33.6644 61.6661 33.6665C62.7712 33.6665 63.831 34.1055 64.6124 34.8869C65.3938 35.6683 65.8328 36.7281 65.8328 37.8332Z" fill="#FFDE76"/>
<path d="M51.666 24.4998V26.1665C51.666 26.6085 51.4904 27.0325 51.1779 27.345C50.8653 27.6576 50.4414 27.8332 49.9993 27.8332H46.666L46.2493 28.1082L41.666 31.1665V27.8332H38.3327C37.8907 27.8332 37.4667 27.6576 37.1542 27.345C36.8416 27.0325 36.666 26.6085 36.666 26.1665V17.8332C36.666 17.3911 36.8416 16.9672 37.1542 16.6547C37.4667 16.3421 37.8907 16.1665 38.3327 16.1665H47.4993V22.8332C47.4993 23.2752 47.6749 23.6991 47.9875 24.0117C48.3001 24.3242 48.724 24.4998 49.166 24.4998H51.666Z" fill="#FFCC66"/>
<path d="M51.5913 26.6665C51.4849 27.0051 51.273 27.3009 50.9867 27.5107C50.7005 27.7206 50.3546 27.8335 49.9997 27.8332H46.6663L46.2497 28.1082L45.833 27.8332C44.1857 26.7404 42.2515 26.1605 40.2747 26.1665H39.9997C39.5576 26.1665 39.1337 25.9909 38.8212 25.6783C38.5086 25.3658 38.333 24.9419 38.333 24.4998V16.1665H45.833V24.4998C45.833 24.9419 46.0086 25.3658 46.3212 25.6783C46.6337 25.9909 47.0576 26.1665 47.4997 26.1665H50.833L51.5913 26.6665Z" fill="#FFDE76"/>
<path d="M69.1665 48.6666V49.5H57.4498C57.264 47.8093 56.5053 46.2331 55.2998 45.0333L55.1748 44.9166C56.1446 43.2311 57.7312 41.9882 59.5998 41.45C59.9835 41.67 60.3999 41.8275 60.8331 41.9166C61.383 42.0289 61.9499 42.0289 62.4998 41.9166C62.9331 41.8275 63.3494 41.67 63.7331 41.45C65.3 41.8991 66.6778 42.8464 67.6582 44.1485C68.6385 45.4507 69.168 47.0367 69.1665 48.6666Z" fill="#FFCC66"/>
<path d="M69.1163 47.8332H58.8163C58.4811 46.6118 57.8903 45.4757 57.083 44.4998C57.4497 43.4299 58.0602 42.4599 58.8663 41.6665C59.108 41.5748 59.358 41.4915 59.608 41.4165C60.2354 41.773 60.9447 41.9604 61.6663 41.9604C62.388 41.9604 63.0972 41.773 63.7247 41.4165C64.895 41.7485 65.9655 42.3638 66.8413 43.2082L66.9663 43.3248C68.1804 44.5354 68.9398 46.1278 69.1163 47.8332Z" fill="#FFDE76"/>
<path d="M42.4994 37.8333C42.503 38.8711 42.1129 39.8717 41.4077 40.6333C41.1217 40.9666 40.7806 41.2485 40.3994 41.4666C39.7695 41.8233 39.0565 42.0073 38.3327 41.9999C37.3532 41.9988 36.4054 41.6526 35.6558 41.0221C34.9061 40.3917 34.4025 39.5173 34.2335 38.5525C34.0644 37.5877 34.2406 36.5942 34.7312 35.7464C35.2217 34.8986 35.9953 34.2508 36.916 33.9166C37.3692 33.7481 37.8492 33.6634 38.3327 33.6666C39.4378 33.6666 40.4976 34.1056 41.279 34.887C42.0604 35.6684 42.4994 36.7282 42.4994 37.8333Z" fill="#FFCC66"/>
<path d="M42.4993 37.8333C42.503 38.8711 42.1128 39.8717 41.4077 40.6333C40.9572 40.8011 40.48 40.8858 39.9993 40.8833C39.1926 40.8828 38.4034 40.6482 37.7275 40.2079C37.0515 39.7676 36.5179 39.1406 36.1915 38.4029C35.865 37.6652 35.7596 36.8487 35.8883 36.0523C36.0169 35.2559 36.3739 34.514 36.916 33.9166C37.3692 33.7481 37.8492 33.6634 38.3327 33.6666C39.4377 33.6666 40.4975 34.1056 41.2789 34.887C42.0603 35.6684 42.4993 36.7282 42.4993 37.8333Z" fill="#FFDE76"/>
<path d="M44.8247 44.9166C43.5449 46.1248 42.7382 47.75 42.5497 49.5H30.833V48.6666C30.8338 47.0371 31.3653 45.4521 32.3472 44.1515C33.329 42.8509 34.7077 41.9055 36.2747 41.4583C36.6577 41.6716 37.0707 41.8261 37.4997 41.9166C38.0496 42.0289 38.6165 42.0289 39.1663 41.9166C39.5996 41.8275 40.0159 41.67 40.3997 41.45C42.2647 41.9952 43.8489 43.2363 44.8247 44.9166Z" fill="#FFCC66"/>
<path d="M43.825 43.575L43.6833 43.7083C42.4851 44.8428 41.6205 46.2838 41.1833 47.875H34.9C34.6872 47.8774 34.4763 47.8346 34.2811 47.7497C34.086 47.6647 33.911 47.5393 33.7678 47.3819C33.6245 47.2245 33.5162 47.0385 33.4499 46.8363C33.3837 46.634 33.361 46.42 33.3833 46.2083C33.5617 44.518 34.3216 42.942 35.5333 41.75C35.775 41.6583 36.025 41.575 36.275 41.5C36.9024 41.8565 37.6117 42.0439 38.3333 42.0439C39.055 42.0439 39.7642 41.8565 40.3917 41.5C41.562 41.832 42.6325 42.4473 43.5083 43.2917L43.6333 43.4083L43.825 43.575Z" fill="#FFDE76"/>
<path d="M62.5 14.4999V22.8333C62.5 23.2753 62.3244 23.6992 62.0118 24.0118C61.6993 24.3243 61.2754 24.4999 60.8333 24.4999H57.5V27.8333L52.5 24.4999H49.1667C48.7246 24.4999 48.3007 24.3243 47.9882 24.0118C47.6756 23.6992 47.5 23.2753 47.5 22.8333V14.4999C47.5 14.0579 47.6756 13.634 47.9882 13.3214C48.3007 13.0088 48.7246 12.8333 49.1667 12.8333H60.8333C61.2754 12.8333 61.6993 13.0088 62.0118 13.3214C62.3244 13.634 62.5 14.0579 62.5 14.4999Z" fill="#6FABE6"/>
<path d="M60.8327 12.8333H49.166V21.1666C49.166 21.6086 49.3416 22.0325 49.6542 22.3451C49.9667 22.6577 50.3907 22.8333 50.8327 22.8333H51.1327C53.101 22.8321 55.0258 23.4119 56.666 24.4999L57.4993 25.0416V24.4999H60.8327C61.2747 24.4999 61.6986 24.3243 62.0112 24.0118C62.3238 23.6992 62.4993 23.2753 62.4993 22.8333V14.4999C62.4993 14.0579 62.3238 13.634 62.0112 13.3214C61.6986 13.0088 61.2747 12.8333 60.8327 12.8333Z" fill="#82BCF4"/>
<path d="M50.8333 17.8332H55C55.221 17.8332 55.433 17.7454 55.5893 17.5891C55.7455 17.4328 55.8333 17.2209 55.8333 16.9998C55.8333 16.7788 55.7455 16.5669 55.5893 16.4106C55.433 16.2543 55.221 16.1665 55 16.1665H50.8333C50.6123 16.1665 50.4004 16.2543 50.2441 16.4106C50.0878 16.5669 50 16.7788 50 16.9998C50 17.2209 50.0878 17.4328 50.2441 17.5891C50.4004 17.7454 50.6123 17.8332 50.8333 17.8332Z" fill="#EDEBF2"/>
<path d="M57.5003 17.8332H59.167C59.388 17.8332 59.6 17.7454 59.7562 17.5891C59.9125 17.4328 60.0003 17.2209 60.0003 16.9998C60.0003 16.7788 59.9125 16.5669 59.7562 16.4106C59.6 16.2543 59.388 16.1665 59.167 16.1665H57.5003C57.2793 16.1665 57.0673 16.2543 56.9111 16.4106C56.7548 16.5669 56.667 16.7788 56.667 16.9998C56.667 17.2209 56.7548 17.4328 56.9111 17.5891C57.0673 17.7454 57.2793 17.8332 57.5003 17.8332Z" fill="#EDEBF2"/>
<path d="M59.167 19.4998H55.0003C54.7793 19.4998 54.5673 19.5876 54.4111 19.7438C54.2548 19.9001 54.167 20.1121 54.167 20.3331C54.167 20.5541 54.2548 20.7661 54.4111 20.9223C54.5673 21.0786 54.7793 21.1664 55.0003 21.1664H59.167C59.388 21.1664 59.6 21.0786 59.7562 20.9223C59.9125 20.7661 60.0003 20.5541 60.0003 20.3331C60.0003 20.1121 59.9125 19.9001 59.7562 19.7438C59.6 19.5876 59.388 19.4998 59.167 19.4998Z" fill="#EDEBF2"/>
<path d="M52.5 19.4998H50.8333C50.6123 19.4998 50.4004 19.5876 50.2441 19.7438C50.0878 19.9001 50 20.1121 50 20.3331C50 20.5541 50.0878 20.7661 50.2441 20.9223C50.4004 21.0786 50.6123 21.1664 50.8333 21.1664H52.5C52.721 21.1664 52.933 21.0786 53.0893 20.9223C53.2455 20.7661 53.3333 20.5541 53.3333 20.3331C53.3333 20.1121 53.2455 19.9001 53.0893 19.7438C52.933 19.5876 52.721 19.4998 52.5 19.4998Z" fill="#EDEBF2"/>
<path d="M39.1668 41.9998V43.6665C39.1668 43.8875 39.079 44.0995 38.9227 44.2558C38.7665 44.412 38.5545 44.4998 38.3335 44.4998C38.1125 44.4998 37.9005 44.412 37.7442 44.2558C37.5879 44.0995 37.5002 43.8875 37.5002 43.6665V41.9998C37.496 41.9722 37.496 41.9441 37.5002 41.9165C38.05 42.0287 38.6169 42.0287 39.1668 41.9165C39.1709 41.9441 39.1709 41.9722 39.1668 41.9998Z" fill="#FFCC66"/>
<path d="M62.4998 41.9998V43.6665C62.4998 43.8875 62.412 44.0995 62.2557 44.2558C62.0995 44.412 61.8875 44.4998 61.6665 44.4998C61.4455 44.4998 61.2335 44.412 61.0772 44.2558C60.921 44.0995 60.8332 43.8875 60.8332 43.6665V41.9998C60.8291 41.9722 60.8291 41.9441 60.8332 41.9165C61.383 42.0287 61.9499 42.0287 62.4998 41.9165C62.5039 41.9441 62.5039 41.9722 62.4998 41.9998Z" fill="#FFCC66"/>
<path d="M54.166 39.4999C54.1641 40.1161 54.0256 40.7242 53.7605 41.2804C53.4954 41.8367 53.1101 42.3272 52.6326 42.7166C52.454 42.8702 52.2615 43.0069 52.0576 43.1249C51.5394 43.4174 50.9645 43.5956 50.3717 43.6473C49.7788 43.699 49.1818 43.6232 48.6207 43.4248C48.0596 43.2265 47.5476 42.9103 47.119 42.4974C46.6903 42.0846 46.3551 41.5848 46.1359 41.0315C45.9166 40.4783 45.8184 39.8845 45.8479 39.2902C45.8773 38.6958 46.0338 38.1146 46.3066 37.5858C46.5795 37.057 46.9625 36.5927 47.4299 36.2243C47.8972 35.8559 48.438 35.5918 49.016 35.4499C49.338 35.3727 49.6681 35.3335 49.9993 35.3333C51.1044 35.3333 52.1642 35.7722 52.9456 36.5536C53.727 37.335 54.166 38.3948 54.166 39.4999Z" fill="#6FABE6"/>
<path d="M54.1663 39.4999C54.1645 40.1161 54.026 40.7242 53.7608 41.2804C53.4957 41.8367 53.1105 42.3272 52.633 42.7166C52.3165 42.7938 51.992 42.833 51.6663 42.8333C50.8078 42.8336 49.9701 42.5687 49.2678 42.0748C48.5656 41.581 48.033 40.8822 47.743 40.0742C47.453 39.2661 47.4196 38.3882 47.6476 37.5605C47.8755 36.7327 48.3535 35.9956 49.0163 35.4499C49.3384 35.3727 49.6684 35.3335 49.9996 35.3333C51.1047 35.3333 52.1645 35.7722 52.9459 36.5536C53.7273 37.335 54.1663 38.3948 54.1663 39.4999Z" fill="#82BCF4"/>
<path d="M57.5 50.3333V51.1667H42.5V50.3333C42.4998 50.0548 42.5165 49.7765 42.55 49.5C42.7385 47.7501 43.5452 46.1249 44.825 44.9167C45.5116 44.2566 46.3176 43.7334 47.2 43.375C47.4417 43.2833 47.6917 43.2 47.9417 43.125C48.3247 43.3383 48.7377 43.4928 49.1667 43.5833C49.7166 43.6956 50.2834 43.6956 50.8333 43.5833C51.2652 43.4936 51.681 43.3391 52.0667 43.125C53.237 43.457 54.3075 44.0723 55.1833 44.9167L55.3083 45.0333C56.5108 46.2344 57.2665 47.8104 57.45 49.5C57.4835 49.7765 57.5002 50.0548 57.5 50.3333Z" fill="#6FABE6"/>
<path d="M57.4494 49.5H46.566C46.3532 49.5024 46.1423 49.4596 45.9471 49.3747C45.752 49.2897 45.577 49.1644 45.4338 49.0069C45.2905 48.8495 45.1822 48.6635 45.116 48.4613C45.0497 48.259 45.027 48.045 45.0494 47.8333C45.2277 46.143 45.9877 44.567 47.1994 43.375C47.441 43.2833 47.691 43.2 47.941 43.125C48.5685 43.4815 49.2777 43.6689 49.9994 43.6689C50.721 43.6689 51.4303 43.4815 52.0577 43.125C53.2281 43.457 54.2985 44.0723 55.1744 44.9167L55.2994 45.0333C56.5049 46.2331 57.2636 47.8093 57.4494 49.5Z" fill="#82BCF4"/>
<path d="M50.8328 43.6666V45.3333C50.8328 45.5543 50.745 45.7662 50.5888 45.9225C50.4325 46.0788 50.2205 46.1666 49.9995 46.1666C49.7785 46.1666 49.5665 46.0788 49.4102 45.9225C49.254 45.7662 49.1662 45.5543 49.1662 45.3333V43.6666C49.1621 43.639 49.1621 43.6109 49.1662 43.5833C49.7161 43.6955 50.2829 43.6955 50.8328 43.5833C50.8369 43.6109 50.8369 43.639 50.8328 43.6666Z" fill="#6FABE6"/>
</g>
<defs>
<clipPath id="clip0_1351_4282">
<rect width="40" height="40" fill="white" transform="translate(30 12)"/>
</clipPath>
</defs>
</svg>
