<svg width="100" height="90" viewBox="0 0 100 90" fill="none" xmlns="http://www.w3.org/2000/svg">
<path d="M44.0537 70.4551V71.6855H32.7607V70.4551H37.6006V67.5977H39.1045V70.4551H44.0537ZM39.1455 62.5117C39.1455 64.3848 41.0186 66.2305 43.6162 66.6406L42.96 67.8984C40.8682 67.502 39.1592 66.3057 38.3389 64.6855C37.5186 66.2988 35.8232 67.5156 33.7451 67.8984L33.0889 66.6406C35.6729 66.2305 37.5186 64.3711 37.5322 62.5117V61.6094H39.1455V62.5117ZM49.4678 62.6211C49.4678 64.248 50.4795 65.7793 52.4482 66.3945L51.6963 67.5977C50.2676 67.1191 49.249 66.1826 48.7021 64.9727C48.1348 66.2715 47.1025 67.3037 45.6396 67.8027L44.874 66.6133C46.8701 65.9297 47.8955 64.3027 47.8955 62.6211V61.4453H49.4678V62.6211ZM55.1553 68.8145V73.2168H53.624V70.0312H46.7197V68.8145H55.1553ZM55.1553 60.8574V68.2539H53.624V60.8574H55.1553ZM68.2256 67.2832V68.4863H56.9326V67.2832H61.8135V66.3672H58.3818V61.1855H66.8721V62.3613H59.8994V63.209H66.5713V64.3301H59.8994V65.2051H66.9678V66.3672H63.3311V67.2832H68.2256ZM62.5791 69.1699C65.2998 69.1699 66.8447 69.8945 66.8584 71.1797C66.8447 72.5059 65.2998 73.2031 62.5791 73.2031C59.8174 73.2031 58.2725 72.5059 58.2725 71.1797C58.2725 69.8945 59.8174 69.1699 62.5791 69.1699ZM62.5791 70.3047C60.7197 70.3047 59.79 70.5918 59.79 71.1797C59.79 71.7812 60.7197 72.0684 62.5791 72.0684C64.4111 72.0684 65.3271 71.7812 65.3408 71.1797C65.3271 70.5918 64.4111 70.3047 62.5791 70.3047Z" fill="#3D3D3D"/>
<g clip-path="url(#clip0_1351_4380)">
<path d="M42.0732 38.2593L37.98 36.1897L35.1377 37.2175L38.2576 50.6938C38.4677 51.6011 39.3734 52.1663 40.2807 51.9563L46.2554 50.5731C47.1626 50.363 47.7828 49.4511 47.5178 48.55C46.5719 45.3334 43.4585 40.3748 42.0732 38.2593Z" fill="#B2AEE4"/>
<path d="M36.6007 37.2175H32.3022C31.0307 37.2175 30 36.1868 30 34.9153V24.6906C30 23.4191 31.0307 22.3884 32.3022 22.3884H36.6007L37.1688 30.1605L36.6007 37.2175Z" fill="#F85647"/>
<path d="M56.3717 15.0762C51.2875 18.6464 45.5129 20.5289 41.5234 21.4834C38.4381 25.1847 38.0692 33.9165 41.5539 38.1313C45.5403 39.0883 51.2948 40.97 56.3717 44.5305L57.7046 29.617L56.3717 15.0762Z" fill="#DEDDF5"/>
<path d="M41.5535 38.1313C38.5877 37.419 36.6006 37.2178 36.6006 37.2178V22.3889C36.6006 22.3889 38.574 22.1893 41.5229 21.4834C39.2597 26.4452 39.3732 33.2154 41.5535 38.1313Z" fill="#C7C4EA"/>
<path d="M62.1124 14.8701V44.7357C62.1124 45.7659 61.5691 46.6697 60.753 47.176C56.8987 40.476 56.8359 19.9456 60.7852 12.45C61.5828 12.9595 62.1124 13.8536 62.1124 14.8701Z" fill="#FD7A6E"/>
<path d="M69.414 30.3887H65.7061C65.3824 30.3887 65.1201 30.1264 65.1201 29.8027C65.1201 29.4791 65.3824 29.2168 65.7061 29.2168H69.414C69.7377 29.2168 70 29.4791 70 29.8027C70 30.1264 69.7377 30.3887 69.414 30.3887Z" fill="#FFDE76"/>
<path d="M65.7067 26.2579C65.5228 26.2579 65.3417 26.1717 65.2276 26.01C65.0408 25.7457 65.1037 25.3801 65.368 25.1934L68.1876 23.2012C68.452 23.0144 68.8176 23.0774 69.0042 23.3416C69.191 23.6059 69.1281 23.9715 68.8639 24.1582L66.0442 26.1504C65.9416 26.223 65.8235 26.2579 65.7067 26.2579Z" fill="#FFDE76"/>
<path d="M68.5252 36.5119C68.4083 36.5119 68.2903 36.477 68.1876 36.4044L65.368 34.4122C65.1037 34.2255 65.0408 33.8598 65.2276 33.5955C65.4143 33.3313 65.7797 33.2683 66.0442 33.4552L68.8639 35.4473C69.1281 35.6341 69.191 35.9997 69.0042 36.264C68.8901 36.4255 68.7091 36.5119 68.5252 36.5119Z" fill="#FFDE76"/>
<path d="M60.7526 47.1759C60.314 47.4487 59.7964 47.6056 59.2419 47.6056C57.6563 47.6056 56.3711 46.3203 56.3711 44.7356V14.87C56.3711 13.2853 57.6564 12 59.242 12C59.8102 12 60.3389 12.165 60.7848 12.4499C57.8609 22.2623 58.0049 37.4342 60.7526 47.1759Z" fill="#F85647"/>
</g>
<defs>
<clipPath id="clip0_1351_4380">
<rect width="40" height="40" fill="white" transform="translate(30 12)"/>
</clipPath>
</defs>
</svg>
