<svg width="100" height="90" viewBox="0 0 100 90" fill="none" xmlns="http://www.w3.org/2000/svg">
<path d="M29.7656 68.2812V69.5254H24.8711V73.2305H23.3672V69.5254H18.5V68.2812H29.7656ZM28.7129 62.3203V63.5234H24.8984C25.042 64.7471 26.6484 66.0254 29.123 66.3262L28.5625 67.5293C26.5186 67.2695 24.9326 66.3672 24.1328 65.1777C23.3193 66.3809 21.7197 67.2695 19.6621 67.5293L19.1152 66.3262C21.583 66.0254 23.2031 64.7676 23.3535 63.5234H19.5391V62.3203H23.3672V60.8711H24.8711V62.3203H28.7129ZM40.9492 68.7598V73.2305H39.4316V69.9766H32.5273V68.7598H40.9492ZM40.9492 60.8574V68.1582H39.4316V65.1777H37.2031C36.9023 66.6064 35.6309 67.5703 34.0312 67.5703C32.1719 67.5703 30.7637 66.3125 30.7637 64.5352C30.7637 62.7852 32.1719 61.5273 34.0312 61.541C35.6377 61.5273 36.9092 62.498 37.2168 63.9199H39.4316V60.8574H40.9492ZM34.0312 62.8262C32.9922 62.8262 32.2129 63.5098 32.2129 64.5352C32.2129 65.6016 32.9922 66.2715 34.0312 66.2852C35.043 66.2715 35.8086 65.6016 35.8223 64.5352C35.8086 63.5098 35.043 62.8262 34.0312 62.8262ZM46.7051 61.7188C48.6602 61.7051 50.0957 62.9492 50.1094 64.6992C50.0957 66.4629 48.6602 67.6934 46.7051 67.6934C44.7637 67.6934 43.3145 66.4629 43.3145 64.6992C43.3145 62.9492 44.7637 61.7051 46.7051 61.7188ZM46.7051 63.0312C45.625 63.0312 44.8184 63.6738 44.8184 64.6992C44.8184 65.7383 45.625 66.3672 46.7051 66.3672C47.7988 66.3672 48.6191 65.7383 48.6191 64.6992C48.6191 63.6738 47.7988 63.0312 46.7051 63.0312ZM52.9941 60.8574V73.2305H51.4766V60.8574H52.9941ZM42.7539 69.4023C44.9824 69.4023 48.0723 69.375 50.7383 68.9922L50.8613 70.0996C48.0859 70.6328 45.1191 70.6465 42.9453 70.6465L42.7539 69.4023ZM63.6855 68.582C66.3652 68.5957 68.0605 69.4434 68.0742 70.9062C68.0605 72.3418 66.3652 73.2031 63.6855 73.2031C61.0195 73.2031 59.3105 72.3418 59.3105 70.9062C59.3105 69.4434 61.0195 68.5957 63.6855 68.582ZM63.6855 69.7305C61.9082 69.7305 60.8281 70.1543 60.8418 70.9062C60.8281 71.6309 61.9082 72.0273 63.6855 72.0273C65.4766 72.0273 66.5566 71.6309 66.5703 70.9062C66.5566 70.1543 65.4766 69.7305 63.6855 69.7305ZM67.9922 61.4453V62.4707C67.9922 63.4414 67.9922 64.4805 67.6504 65.752L66.1465 65.6152C66.4541 64.4121 66.4746 63.5439 66.4746 62.6484H59.4336V61.4453H67.9922ZM69.3594 66.4629V67.6934H58.1484V66.4629H62.4961V64.2207H64V66.4629H69.3594ZM79.9688 60.8574V64.4121H81.6914V65.6836H79.9688V69.7715H78.4238V60.8574H79.9688ZM76.6055 61.8008C76.6055 65.082 74.4727 67.4199 70.8086 68.4863L70.1797 67.2832C73.0029 66.4697 74.6846 64.9316 74.9512 63.0449H70.6992V61.8008H76.6055ZM80.4336 71.7402V72.9707H72.0254V68.8555H73.5703V71.7402H80.4336Z" fill="#3D3D3D"/>
<path d="M66.9418 47.171H39.7789L36.7607 49.5855V17.2314C36.7607 13.8016 38.5625 12 40.7849 12H66.137C66.5815 12 66.9418 12.3603 66.9418 12.8048V47.171Z" fill="#FFDE76"/>
<path d="M66.1371 12H63.7227C64.1672 12 64.5275 12.3603 64.5275 12.8048V47.171H66.942V12.8048C66.942 12.3603 66.5816 12 66.1371 12Z" fill="#FFCC66"/>
<path d="M39.1752 51.9999H66.137C66.5815 51.9999 66.9418 51.6396 66.9418 51.195V47.1709H39.1752C37.8417 47.1709 36.7607 48.2519 36.7607 49.5854C36.7607 50.9189 37.8417 51.9999 39.1752 51.9999Z" fill="#F9F7F8"/>
<path d="M64.5275 47.1709V51.195C64.5275 51.6396 64.1672 51.9999 63.7227 51.9999H66.1371C66.5816 51.9999 66.942 51.6396 66.942 51.195V47.1709H64.5275Z" fill="#EFEDEF"/>
<path d="M36.7608 17.8752C35.4084 17.8752 34.2658 18.6492 34.2658 19.5654C34.2658 20.4816 35.4084 21.2555 36.7608 21.2555C38.1132 21.2555 39.2558 20.4816 39.2558 19.5654C39.2558 19.232 39.526 18.9618 39.8594 18.9618C40.1927 18.9618 40.463 19.232 40.463 19.5654C40.463 21.163 38.8021 22.4628 36.7608 22.4628C34.7195 22.4628 33.0586 21.163 33.0586 19.5654C33.0586 17.9677 34.7195 16.668 36.7608 16.668C36.7664 16.668 36.772 16.668 36.7777 16.6682C36.7654 16.883 36.7619 17.057 36.7609 17.1777C36.7602 17.2669 36.7611 17.3228 36.7612 17.5577C36.7612 17.6923 36.761 17.8025 36.7608 17.8752Z" fill="#A87E6B"/>
<path d="M36.7608 26.3259C35.4084 26.3259 34.2658 27.0999 34.2658 28.0161C34.2658 28.9322 35.4084 29.7062 36.7608 29.7062C38.1132 29.7062 39.2558 28.9322 39.2558 28.0161C39.2558 27.6827 39.526 27.4125 39.8594 27.4125C40.1927 27.4125 40.463 27.6827 40.463 28.0161C40.463 29.6137 38.8021 30.9135 36.7608 30.9135C34.7195 30.9135 33.0586 29.6137 33.0586 28.0161C33.0586 26.4184 34.7195 25.1187 36.7608 25.1187V26.3259Z" fill="#A87E6B"/>
<path d="M36.7608 33.5696C35.4084 33.5696 34.2658 34.3436 34.2658 35.2597C34.2658 36.1759 35.4084 36.9499 36.7608 36.9499C38.1132 36.9499 39.2558 36.1759 39.2558 35.2597C39.2558 34.9264 39.526 34.6561 39.8594 34.6561C40.1927 34.6561 40.463 34.9264 40.463 35.2597C40.463 36.8574 38.8021 38.1571 36.7608 38.1571C34.7195 38.1571 33.0586 36.8574 33.0586 35.2597C33.0586 33.6621 34.7195 32.3623 36.7608 32.3623V33.5696Z" fill="#A87E6B"/>
<path d="M36.7608 40.813C35.4084 40.813 34.2658 41.587 34.2658 42.5031C34.2658 43.4193 35.4084 44.1933 36.7608 44.1933C38.1132 44.1933 39.2558 43.4193 39.2558 42.5031C39.2558 42.1698 39.526 41.8995 39.8594 41.8995C40.1927 41.8995 40.463 42.1698 40.463 42.5031C40.463 44.1008 38.8021 45.4006 36.7608 45.4006C34.7195 45.4006 33.0586 44.1008 33.0586 42.5031C33.0586 40.9055 34.7195 39.6057 36.7608 39.6057V40.813Z" fill="#A87E6B"/>
<path d="M60.9083 29.0893L45.3361 29.0709C45.0027 29.0709 44.744 29.1103 44.5255 28.8918C44.307 28.6734 44.1719 28.3715 44.1719 28.0382V18.0364C44.1719 17.3696 44.7123 16.8291 45.3791 16.8291H60.906C61.5727 16.8291 62.1133 17.3696 62.1133 18.0364V28.0382C62.1133 28.093 62.1096 28.1469 62.1026 28.1997C62.0236 28.79 61.5202 29.0893 60.9083 29.0893Z" fill="#F9F7F8"/>
<path d="M62.1011 28.1993L57.2103 22.384C56.8886 22.0016 56.3 22.0016 55.9784 22.384L50.208 29.2452H60.9058C61.5177 29.2452 62.022 28.7895 62.1011 28.1993Z" fill="#C9F6B0"/>
<path d="M57.2099 22.384C56.8884 22.0016 56.2996 22.0016 55.978 22.384L55.3867 23.087L59.2216 27.6468C59.7273 28.2481 59.3511 29.1941 58.5669 29.2428C58.5418 29.2444 58.5165 29.2452 58.4909 29.2452H60.9054C61.5173 29.2452 62.0216 28.7895 62.1006 28.1992L57.2099 22.384Z" fill="#9BE69D"/>
<path d="M44.5254 28.8918C44.7439 29.1102 45.0457 29.2454 45.3791 29.2454H54.5301L49.9201 24.6354C49.6058 24.3211 49.0962 24.3211 48.7819 24.6354L44.5254 28.8918Z" fill="#C9F6B0"/>
<path d="M49.9199 24.6354C49.6056 24.3211 49.096 24.3211 48.7817 24.6354L48.1436 25.2735L52.1154 29.2454H54.5299L49.9199 24.6354Z" fill="#9BE69D"/>
<path d="M51.8518 22.5007C52.5186 22.5007 53.0591 21.9602 53.0591 21.2934C53.0591 20.6267 52.5186 20.0862 51.8518 20.0862C51.185 20.0862 50.6445 20.6267 50.6445 21.2934C50.6445 21.9602 51.185 22.5007 51.8518 22.5007Z" fill="#FEE97D"/>
<path d="M62.1012 39.3239H44.172C43.8385 39.3239 43.5684 39.0537 43.5684 38.7203C43.5684 38.3869 43.8386 38.1167 44.172 38.1167H62.1012C62.4347 38.1167 62.7048 38.3869 62.7048 38.7203C62.7049 39.0537 62.4347 39.3239 62.1012 39.3239Z" fill="#A87E6B"/>
<path d="M56.0651 42.9457H44.172C43.8385 42.9457 43.5684 42.6755 43.5684 42.3421C43.5684 42.0088 43.8386 41.7385 44.172 41.7385H56.065C56.3984 41.7385 56.6686 42.0088 56.6686 42.3421C56.6687 42.6754 56.3984 42.9457 56.0651 42.9457Z" fill="#A87E6B"/>
</svg>
