<svg width="100" height="90" viewBox="0 0 100 90" fill="none" xmlns="http://www.w3.org/2000/svg">
<path d="M37.9766 66.5312V67.7617H33.082V68.7871C35.2969 68.9375 36.5957 69.7031 36.6094 70.9883C36.5957 72.4102 34.9961 73.2031 32.3301 73.2031C29.6367 73.2031 28.0234 72.4102 28.0234 70.9883C28.0234 69.7031 29.3359 68.9307 31.5781 68.7871V67.7617H26.7109V66.5312H37.9766ZM32.3301 69.9355C30.5254 69.9492 29.5547 70.3047 29.5684 70.9883C29.5547 71.6719 30.5254 72.041 32.3301 72.041C34.0938 72.041 35.0781 71.6719 35.0918 70.9883C35.0781 70.3047 34.0938 69.9492 32.3301 69.9355ZM36.9648 61.4043V62.6211H33.4102C33.6494 63.6396 35.126 64.5557 37.4434 64.7676L36.9102 65.9707C34.668 65.7451 33 64.8496 32.3301 63.5918C31.6602 64.8428 30.0195 65.7451 27.7773 65.9707L27.2578 64.7676C29.5273 64.5557 31.0039 63.626 31.2637 62.6211H27.7363V61.4043H36.9648ZM48.9004 61.9922V63.1816C48.8867 64.7129 48.8867 66.4355 48.4082 69.0195L46.877 68.8555C47.3555 66.4492 47.3555 64.6924 47.3691 63.209H39.9863V61.9922H48.9004ZM50.0762 70.373V71.6172H38.8105V70.373H42.9668V66.0801H44.4707V70.373H50.0762ZM61.2598 60.8574V73.2168H59.7422V66.9277H57.1309V65.6836H59.7422V60.8574H61.2598ZM57.1855 62.1699C57.1719 65.8203 55.873 68.8828 51.6211 70.9883L50.8281 69.7988C54.0273 68.2334 55.4014 66.1416 55.6543 63.373H51.4023V62.1699H57.1855ZM68.041 62.1152V66.7227H64.8418V69.1289C66.0996 69.1152 67.2959 69.0674 68.6699 68.8418L68.7793 70.0723C67.1113 70.3457 65.7578 70.4004 64.2266 70.4004H63.3789V65.4922H66.5781V63.3457H63.3652V62.1152H68.041ZM73.6465 60.8574V73.2168H72.1973V66.832H70.8027V72.5879H69.4082V61.0898H70.8027V65.6016H72.1973V60.8574H73.6465Z" fill="#3D3D3D"/>
<path d="M64.1663 14.5V33.5333C55.2747 29.6 47.8997 41.8833 55.833 47.8333H30.833V14.5H64.1663Z" fill="#EDB996"/>
<path d="M64.1663 14.5V33.5333C62.8938 32.9764 61.5022 32.7465 60.1181 32.8643C58.734 32.9822 57.4014 33.4442 56.2413 34.2083C55.1215 34.6296 54.1055 35.287 53.2624 36.1359C52.4193 36.9848 51.7688 38.0053 51.3553 39.128C50.9418 40.2508 50.7749 41.4494 50.866 42.6423C50.957 43.8353 51.3039 44.9947 51.883 46.0417C46.7838 45.4794 42.0714 43.0555 38.6485 39.2343C35.2256 35.4132 33.3329 30.4634 33.333 25.3333V14.5H64.1663Z" fill="#F6CCAF"/>
<path d="M41.666 14.5H53.3327V22.8333H41.666V14.5Z" fill="#A87E6B"/>
<path d="M53.333 14.5V21.1667H49.9997C48.2316 21.1667 46.5359 20.4643 45.2856 19.214C44.0354 17.9638 43.333 16.2681 43.333 14.5H53.333Z" fill="#BE927C"/>
<path d="M34.166 37.8333H44.166V44.4999H34.166V37.8333Z" fill="#DAD7E5"/>
<path d="M44.1667 37.8333V43.6666H40.8333C39.2862 43.6666 37.8025 43.052 36.7085 41.958C35.6146 40.8641 35 39.3803 35 37.8333H44.1667Z" fill="#EDEBF2"/>
<path d="M40.8327 41.9999H37.4993C37.2783 41.9999 37.0664 41.9121 36.9101 41.7558C36.7538 41.5996 36.666 41.3876 36.666 41.1666C36.666 40.9456 36.7538 40.7336 36.9101 40.5773C37.0664 40.421 37.2783 40.3333 37.4993 40.3333H40.8327C41.0537 40.3333 41.2657 40.421 41.4219 40.5773C41.5782 40.7336 41.666 40.9456 41.666 41.1666C41.666 41.3876 41.5782 41.5996 41.4219 41.7558C41.2657 41.9121 41.0537 41.9999 40.8327 41.9999Z" fill="#7C7D7D"/>
<path d="M69.1664 41.1666C69.1664 42.7142 68.7354 44.2312 67.9218 45.5477C67.1082 46.8641 65.9441 47.928 64.5598 48.6201C63.1756 49.3123 61.626 49.6052 60.0847 49.4662C58.5433 49.3273 57.0711 48.7618 55.8331 47.8333C49.3914 42.9833 52.9331 32.8333 60.8331 32.8333C63.0432 32.8333 65.1628 33.7112 66.7256 35.274C68.2884 36.8368 69.1664 38.9564 69.1664 41.1666Z" fill="#FFCC66"/>
<path d="M69.166 41.1666C69.166 42.9697 68.5812 44.7242 67.4994 46.1666C65.8946 47.3702 63.9095 47.9545 61.9086 47.8123C59.9077 47.6701 58.0252 46.811 56.6068 45.3925C55.1884 43.9741 54.3292 42.0916 54.187 40.0907C54.0448 38.0898 54.6291 36.1047 55.8327 34.5C57.272 33.4121 59.0285 32.8266 60.8327 32.8333C63.0428 32.8333 65.1624 33.7113 66.7253 35.2741C68.2881 36.8369 69.166 38.9565 69.166 41.1666Z" fill="#FFDE76"/>
<path d="M62.4994 37.8334C58.0911 37.8334 58.5744 37.9417 58.9244 37.5917C59.0814 37.4348 59.1695 37.222 59.1695 37.0001C59.1695 36.7782 59.0814 36.5653 58.9244 36.4084C58.7675 36.2515 58.5547 36.1633 58.3328 36.1633C58.1109 36.1633 57.898 36.2515 57.7411 36.4084C56.0744 38.0751 55.8744 38.1751 55.8411 38.6167C55.8325 38.7341 55.8488 38.852 55.889 38.9626C55.9293 39.0732 55.9924 39.174 56.0744 39.2584C57.8911 41.0751 57.8828 41.1667 58.3328 41.1667C58.4983 41.1677 58.6604 41.1194 58.7983 41.0278C58.9362 40.9363 59.0438 40.8058 59.1072 40.653C59.1707 40.5001 59.1872 40.3318 59.1547 40.1695C59.1221 40.0072 59.042 39.8583 58.9244 39.7417C58.5911 39.4167 57.9078 39.5001 62.4994 39.5001C62.9415 39.5001 63.3654 39.6757 63.678 39.9882C63.9905 40.3008 64.1661 40.7247 64.1661 41.1667C64.1661 41.6088 63.9905 42.0327 63.678 42.3453C63.3654 42.6578 62.9415 42.8334 62.4994 42.8334H57.4994C57.2784 42.8334 57.0665 42.9212 56.9102 43.0775C56.7539 43.2338 56.6661 43.4457 56.6661 43.6667C56.6661 43.8878 56.7539 44.0997 56.9102 44.256C57.0665 44.4123 57.2784 44.5001 57.4994 44.5001H62.4994C63.3835 44.5001 64.2313 44.1489 64.8565 43.5238C65.4816 42.8986 65.8328 42.0508 65.8328 41.1667C65.8328 40.2827 65.4816 39.4348 64.8565 38.8097C64.2313 38.1846 63.3835 37.8334 62.4994 37.8334Z" fill="#A87E6B"/>
</svg>
