<svg width="100" height="90" viewBox="0 0 100 90" fill="none" xmlns="http://www.w3.org/2000/svg">
<path d="M37.9902 66.7773V67.9941H26.7109V66.7773H31.6055V65.6016H28.0918V61.418H36.623V62.6074H29.6094V64.3984H36.6914V65.6016H33.0957V66.7773H37.9902ZM32.3301 68.7051C34.9961 68.7051 36.5957 69.5117 36.6094 70.9609C36.5957 72.3965 34.9961 73.2168 32.3301 73.2168C29.6367 73.2168 28.0234 72.3965 28.0234 70.9609C28.0234 69.5117 29.6367 68.7051 32.3301 68.7051ZM32.3301 69.8672C30.5254 69.8672 29.5547 70.25 29.5684 70.9609C29.5547 71.6719 30.5254 72.041 32.3301 72.041C34.0938 72.041 35.0781 71.6719 35.0918 70.9609C35.0781 70.25 34.0938 69.8672 32.3301 69.8672ZM40.8477 62.0879V68.8828C42.0576 68.8691 43.1719 68.7803 44.4297 68.5137L44.6484 69.7988C43.0762 70.1406 41.7227 70.1953 40.1641 70.1953H39.3301V62.0879H40.8477ZM49.4746 60.8574V73.2168H48.0254V60.8574H49.4746ZM46.8223 61.1172V72.6289H45.3867V66.0801H42.8027V64.8496H45.3867V61.1172H46.8223ZM60.7949 61.6094V62.7168C60.7949 63.8721 60.7949 65.1367 60.4668 66.8867H62.1758V68.1172H57.2676V73.2305H55.7363V68.1172H50.9102V66.8867H58.9219C59.2637 65.2051 59.2773 63.9473 59.2773 62.8398H52.2363V61.6094H60.7949ZM73.3047 60.8711V69.7988H71.7734V60.8711H73.3047ZM73.6465 71.7402V72.9707H65.1289V68.8965H66.6602V71.7402H73.6465ZM66.5645 61.6777C68.4375 61.6777 69.8867 62.9766 69.8867 64.7676C69.8867 66.5996 68.4375 67.8711 66.5645 67.8711C64.6777 67.8711 63.2285 66.5996 63.2285 64.7676C63.2285 62.9766 64.6777 61.6777 66.5645 61.6777ZM66.5645 63.0039C65.5117 63.0039 64.7051 63.7012 64.7188 64.7676C64.7051 65.8613 65.5117 66.5449 66.5645 66.5449C67.5898 66.5449 68.3965 65.8613 68.3965 64.7676C68.3965 63.7012 67.5898 63.0039 66.5645 63.0039Z" fill="#3D3D3D"/>
<g clip-path="url(#clip0_1465_5110)">
<path d="M55.75 12H31V52H61V16.8276L55.75 12Z" fill="#FFEEB7"/>
<path d="M55.5996 12V16.9696H60.9998" fill="#CEB195"/>
<path d="M40.1709 14.8396H50.9712V16.2595H40.1709V14.8396Z" fill="#CEB195"/>
<path d="M42.4854 20.5193H57.9143V21.9392H42.4854V20.5193Z" fill="#CEB195"/>
<path d="M42.4854 23.3589H57.9143V24.7788H42.4854V23.3589Z" fill="#CEB195"/>
<path d="M42.4854 31.1682H48.6569V32.5881H42.4854V31.1682Z" fill="#CEB195"/>
<path d="M42.4854 34.0083H47.114V35.4282H42.4854V34.0083Z" fill="#CEB195"/>
<path d="M42.4854 40.8174H46.3426V42.2373H42.4854V40.8174Z" fill="#CEB195"/>
<path d="M42.4854 43.6572H47.114V45.0771H42.4854V43.6572Z" fill="#CEB195"/>
<path d="M68.5863 38.8967C68.5863 43.8482 64.5723 47.8622 59.6208 47.8622C54.6693 47.8622 50.6553 43.8482 50.6553 38.8967C50.6553 33.9452 54.6693 29.9312 59.6208 29.9312C64.5723 29.9312 68.5863 33.9452 68.5863 38.8967Z" fill="#9CB79B"/>
<path d="M52.6553 44.5519C55.7587 48.4137 61.414 48.9657 65.2762 45.8622C65.7587 45.4484 66.1726 45.0345 66.5864 44.5519L64.7242 40.8275C64.5175 40.4827 64.2417 40.2069 63.8278 40.1379L61.6898 39.5863L62.3104 37.7241C62.3795 37.5864 62.3795 37.4483 62.3795 37.3106V34.7587C62.3795 34 61.7589 33.3794 61.0002 33.3794H58.2415C57.4829 33.3794 56.8622 34 56.8622 34.7587V37.3106C56.8622 37.4483 56.8622 37.5864 56.9313 37.7241L57.5519 39.5863L55.4139 40.1379C55 40.2069 54.7242 40.4827 54.5175 40.8275L52.6553 44.5519Z" fill="#4A4A56"/>
<path d="M35.5 20H38.5C39.3251 20 40 20.6749 40 21.5V24.5C40 25.3251 39.3251 26 38.5 26H35.5C34.6749 26 34 25.3251 34 24.5V21.5C34 20.6749 34.6749 20 35.5 20Z" fill="#CEB195"/>
<path d="M35.5 30H38.5C39.3251 30 40 30.6749 40 31.5V34.5C40 35.3251 39.3251 36 38.5 36H35.5C34.6749 36 34 35.3251 34 34.5V31.5C34 30.6749 34.6749 30 35.5 30Z" fill="#CEB195"/>
<path d="M36 22.9008L39.9012 19L41 20.0988L37.0988 24L36 22.9008Z" fill="#EDD9BE"/>
<path d="M36 32.9012L39.9008 29L41 30.0992L37.0988 34L36 32.9012Z" fill="#EDD9BE"/>
<path d="M35.5 40H38.5C39.3251 40 40 40.6749 40 41.5V44.5C40 45.3251 39.3251 46 38.5 46H35.5C34.6749 46 34 45.3251 34 44.5V41.5C34 40.6749 34.6749 40 35.5 40Z" fill="#CEB195"/>
<path d="M36 42.9012L39.9008 39L41 40.0988L37.0988 44L36 42.9012Z" fill="#EDD9BE"/>
</g>
<defs>
<clipPath id="clip0_1465_5110">
<rect width="40" height="40" fill="white" transform="translate(30 12)"/>
</clipPath>
</defs>
</svg>
