<svg width="40" height="40" viewBox="0 0 40 40" fill="none" xmlns="http://www.w3.org/2000/svg">
<circle cx="20" cy="20" r="19.5" stroke="#3D3D3D"/>
<path d="M28.6316 24.5881C28.101 23.675 27.3126 21.0997 27.3126 17.75C27.3126 15.8106 26.5422 13.9506 25.1708 12.5793C23.7994 11.2079 21.9395 10.4375 20.0001 10.4375C18.0607 10.4375 16.2007 11.2079 14.8294 12.5793C13.458 13.9506 12.6876 15.8106 12.6876 17.75C12.6876 21.1006 11.8982 23.675 11.3676 24.5881C11.2512 24.7875 11.1894 25.014 11.1885 25.2449C11.1876 25.4758 11.2476 25.7028 11.3625 25.903C11.4773 26.1033 11.643 26.2697 11.8427 26.3855C12.0425 26.5013 12.2692 26.5623 12.5001 26.5625H16.4826C16.6192 27.3964 17.0478 28.1545 17.6918 28.7016C18.3358 29.2486 19.1532 29.549 19.9982 29.549C20.8432 29.549 21.6607 29.2486 22.3047 28.7016C22.9486 28.1545 23.3772 27.3964 23.5138 26.5625H27.5001C27.7308 26.562 27.9573 26.5007 28.1568 26.3848C28.3562 26.2689 28.5216 26.1024 28.6363 25.9022C28.7509 25.702 28.8108 25.4751 28.8098 25.2444C28.8088 25.0137 28.7471 24.7874 28.6307 24.5881H28.6316ZM20.0001 28.4375C19.4516 28.4373 18.9191 28.2521 18.4889 27.9119C18.0586 27.5716 17.7557 27.0962 17.6291 26.5625H22.371C22.2444 27.0962 21.9415 27.5716 21.5113 27.9119C21.081 28.2521 20.5486 28.4373 20.0001 28.4375ZM27.6604 25.3438C27.645 25.3725 27.6219 25.3964 27.5938 25.4129C27.5657 25.4295 27.5336 25.438 27.501 25.4375H12.5001C12.4675 25.438 12.4354 25.4295 12.4073 25.4129C12.3792 25.3964 12.3562 25.3725 12.3407 25.3438C12.3243 25.3152 12.3156 25.2829 12.3156 25.25C12.3156 25.2171 12.3243 25.1848 12.3407 25.1562C13.0504 23.9375 13.8126 21.0959 13.8126 17.75C13.8126 16.109 14.4645 14.5352 15.6249 13.3748C16.7852 12.2144 18.3591 11.5625 20.0001 11.5625C21.6411 11.5625 23.2149 12.2144 24.3753 13.3748C25.5357 14.5352 26.1876 16.109 26.1876 17.75C26.1876 21.095 26.9507 23.9328 27.6604 25.1562C27.6769 25.1848 27.6855 25.2171 27.6855 25.25C27.6855 25.2829 27.6769 25.3152 27.6604 25.3438Z" fill="#3D3D3D"/>
</svg>
